%TF.GenerationSoftware,KiCad,Pcbnew,8.0.9-8.0.9-0~ubuntu22.04.1*%
%TF.CreationDate,2025-08-19T21:28:40+02:00*%
%TF.ProjectId,KG_Disp_Adapter,4b475f44-6973-4705-9f41-646170746572,rev?*%
%TF.SameCoordinates,Original*%
%TF.FileFunction,Drillmap*%
%TF.FilePolarity,Positive*%
%FSLAX45Y45*%
G04 Gerber Fmt 4.5, Leading zero omitted, Abs format (unit mm)*
G04 Created by KiCad (PCBNEW 8.0.9-8.0.9-0~ubuntu22.04.1) date 2025-08-19 21:28:40*
%MOMM*%
%LPD*%
G01*
G04 APERTURE LIST*
%ADD10C,0.150000*%
%ADD11C,0.200000*%
G04 APERTURE END LIST*
D10*
X12957501Y-13878500D02*
X12957501Y-10378500D01*
X18157501Y-13878500D02*
X18157501Y-10378500D01*
X12957501Y-10378500D02*
X18157501Y-10378500D01*
X18157501Y-13878500D02*
X12957501Y-13878500D01*
D11*
X13210778Y-14197484D02*
X13210778Y-13997484D01*
X13210778Y-13997484D02*
X13258397Y-13997484D01*
X13258397Y-13997484D02*
X13286968Y-14007007D01*
X13286968Y-14007007D02*
X13306016Y-14026055D01*
X13306016Y-14026055D02*
X13315539Y-14045103D01*
X13315539Y-14045103D02*
X13325063Y-14083198D01*
X13325063Y-14083198D02*
X13325063Y-14111769D01*
X13325063Y-14111769D02*
X13315539Y-14149865D01*
X13315539Y-14149865D02*
X13306016Y-14168912D01*
X13306016Y-14168912D02*
X13286968Y-14187960D01*
X13286968Y-14187960D02*
X13258397Y-14197484D01*
X13258397Y-14197484D02*
X13210778Y-14197484D01*
X13410778Y-14197484D02*
X13410778Y-14064150D01*
X13410778Y-14102246D02*
X13420301Y-14083198D01*
X13420301Y-14083198D02*
X13429825Y-14073674D01*
X13429825Y-14073674D02*
X13448873Y-14064150D01*
X13448873Y-14064150D02*
X13467920Y-14064150D01*
X13534587Y-14197484D02*
X13534587Y-14064150D01*
X13534587Y-13997484D02*
X13525063Y-14007007D01*
X13525063Y-14007007D02*
X13534587Y-14016531D01*
X13534587Y-14016531D02*
X13544111Y-14007007D01*
X13544111Y-14007007D02*
X13534587Y-13997484D01*
X13534587Y-13997484D02*
X13534587Y-14016531D01*
X13658397Y-14197484D02*
X13639349Y-14187960D01*
X13639349Y-14187960D02*
X13629825Y-14168912D01*
X13629825Y-14168912D02*
X13629825Y-13997484D01*
X13763158Y-14197484D02*
X13744111Y-14187960D01*
X13744111Y-14187960D02*
X13734587Y-14168912D01*
X13734587Y-14168912D02*
X13734587Y-13997484D01*
X13991730Y-14197484D02*
X13991730Y-13997484D01*
X13991730Y-13997484D02*
X14058397Y-14140341D01*
X14058397Y-14140341D02*
X14125063Y-13997484D01*
X14125063Y-13997484D02*
X14125063Y-14197484D01*
X14306016Y-14197484D02*
X14306016Y-14092722D01*
X14306016Y-14092722D02*
X14296492Y-14073674D01*
X14296492Y-14073674D02*
X14277444Y-14064150D01*
X14277444Y-14064150D02*
X14239349Y-14064150D01*
X14239349Y-14064150D02*
X14220301Y-14073674D01*
X14306016Y-14187960D02*
X14286968Y-14197484D01*
X14286968Y-14197484D02*
X14239349Y-14197484D01*
X14239349Y-14197484D02*
X14220301Y-14187960D01*
X14220301Y-14187960D02*
X14210778Y-14168912D01*
X14210778Y-14168912D02*
X14210778Y-14149865D01*
X14210778Y-14149865D02*
X14220301Y-14130817D01*
X14220301Y-14130817D02*
X14239349Y-14121293D01*
X14239349Y-14121293D02*
X14286968Y-14121293D01*
X14286968Y-14121293D02*
X14306016Y-14111769D01*
X14401254Y-14064150D02*
X14401254Y-14264150D01*
X14401254Y-14073674D02*
X14420301Y-14064150D01*
X14420301Y-14064150D02*
X14458397Y-14064150D01*
X14458397Y-14064150D02*
X14477444Y-14073674D01*
X14477444Y-14073674D02*
X14486968Y-14083198D01*
X14486968Y-14083198D02*
X14496492Y-14102246D01*
X14496492Y-14102246D02*
X14496492Y-14159388D01*
X14496492Y-14159388D02*
X14486968Y-14178436D01*
X14486968Y-14178436D02*
X14477444Y-14187960D01*
X14477444Y-14187960D02*
X14458397Y-14197484D01*
X14458397Y-14197484D02*
X14420301Y-14197484D01*
X14420301Y-14197484D02*
X14401254Y-14187960D01*
X14582206Y-14178436D02*
X14591730Y-14187960D01*
X14591730Y-14187960D02*
X14582206Y-14197484D01*
X14582206Y-14197484D02*
X14572682Y-14187960D01*
X14572682Y-14187960D02*
X14582206Y-14178436D01*
X14582206Y-14178436D02*
X14582206Y-14197484D01*
X14582206Y-14073674D02*
X14591730Y-14083198D01*
X14591730Y-14083198D02*
X14582206Y-14092722D01*
X14582206Y-14092722D02*
X14572682Y-14083198D01*
X14572682Y-14083198D02*
X14582206Y-14073674D01*
X14582206Y-14073674D02*
X14582206Y-14092722D01*
M02*
