%TF.GenerationSoftware,KiCad,Pcbnew,8.0.9-8.0.9-0~ubuntu22.04.1*%
%TF.CreationDate,2025-08-19T21:28:40+02:00*%
%TF.ProjectId,KG_Disp_Adapter,4b475f44-6973-4705-9f41-646170746572,rev?*%
%TF.SameCoordinates,Original*%
%TF.FileFunction,Drillmap*%
%TF.FilePolarity,Positive*%
%FSLAX45Y45*%
G04 Gerber Fmt 4.5, Leading zero omitted, Abs format (unit mm)*
G04 Created by KiCad (PCBNEW 8.0.9-8.0.9-0~ubuntu22.04.1) date 2025-08-19 21:28:40*
%MOMM*%
%LPD*%
G01*
G04 APERTURE LIST*
%ADD10C,0.150000*%
%ADD11C,0.200000*%
%ADD12C,0.100000*%
G04 APERTURE END LIST*
D10*
X12957501Y-13878500D02*
X12957501Y-10378500D01*
X18157501Y-13878500D02*
X18157501Y-10378500D01*
X12957501Y-10378500D02*
X18157501Y-10378500D01*
X18157501Y-13878500D02*
X12957501Y-13878500D01*
D11*
D12*
X13002501Y-12313500D02*
X13032501Y-12343500D01*
X13032501Y-12313500D02*
X13002501Y-12343500D01*
X13302501Y-13768500D02*
X13332501Y-13798500D01*
X13332501Y-13768500D02*
X13302501Y-13798500D01*
X13442501Y-13213500D02*
X13472501Y-13243500D01*
X13472501Y-13213500D02*
X13442501Y-13243500D01*
X13450001Y-13301000D02*
X13480001Y-13331000D01*
X13480001Y-13301000D02*
X13450001Y-13331000D01*
X13462501Y-13093500D02*
X13492501Y-13123500D01*
X13492501Y-13093500D02*
X13462501Y-13123500D01*
X13593751Y-12733500D02*
X13623751Y-12763500D01*
X13623751Y-12733500D02*
X13593751Y-12763500D01*
X13593751Y-12933500D02*
X13623751Y-12963500D01*
X13623751Y-12933500D02*
X13593751Y-12963500D01*
X13622501Y-12473500D02*
X13652501Y-12503500D01*
X13652501Y-12473500D02*
X13622501Y-12503500D01*
X13673751Y-11273500D02*
X13703751Y-11303500D01*
X13703751Y-11273500D02*
X13673751Y-11303500D01*
X13673751Y-11473500D02*
X13703751Y-11503500D01*
X13703751Y-11473500D02*
X13673751Y-11503500D01*
X14022501Y-13368500D02*
X14052501Y-13398500D01*
X14052501Y-13368500D02*
X14022501Y-13398500D01*
X14182501Y-12968500D02*
X14212501Y-12998500D01*
X14212501Y-12968500D02*
X14182501Y-12998500D01*
X14182501Y-13768500D02*
X14212501Y-13798500D01*
X14212501Y-13768500D02*
X14182501Y-13798500D01*
X14233751Y-12673500D02*
X14263751Y-12703500D01*
X14263751Y-12673500D02*
X14233751Y-12703500D01*
X14302501Y-13308500D02*
X14332501Y-13338500D01*
X14332501Y-13308500D02*
X14302501Y-13338500D01*
X14357501Y-13248500D02*
X14387501Y-13278500D01*
X14387501Y-13248500D02*
X14357501Y-13278500D01*
X14493751Y-12653500D02*
X14523751Y-12683500D01*
X14523751Y-12653500D02*
X14493751Y-12683500D01*
X14553751Y-11553500D02*
X14583751Y-11583500D01*
X14583751Y-11553500D02*
X14553751Y-11583500D01*
X14562501Y-10873500D02*
X14592501Y-10903500D01*
X14592501Y-10873500D02*
X14562501Y-10903500D01*
X14602501Y-12653500D02*
X14632501Y-12683500D01*
X14632501Y-12653500D02*
X14602501Y-12683500D01*
X14702501Y-13153500D02*
X14732501Y-13183500D01*
X14732501Y-13153500D02*
X14702501Y-13183500D01*
X14742501Y-12673500D02*
X14772501Y-12703500D01*
X14772501Y-12673500D02*
X14742501Y-12703500D01*
X14802501Y-12953500D02*
X14832501Y-12983500D01*
X14832501Y-12953500D02*
X14802501Y-12983500D01*
X14822501Y-10873500D02*
X14852501Y-10903500D01*
X14852501Y-10873500D02*
X14822501Y-10903500D01*
X14842501Y-10573500D02*
X14872501Y-10603500D01*
X14872501Y-10573500D02*
X14842501Y-10603500D01*
X14862501Y-11513500D02*
X14892501Y-11543500D01*
X14892501Y-11513500D02*
X14862501Y-11543500D01*
X14942501Y-10873500D02*
X14972501Y-10903500D01*
X14972501Y-10873500D02*
X14942501Y-10903500D01*
X14942501Y-11513500D02*
X14972501Y-11543500D01*
X14972501Y-11513500D02*
X14942501Y-11543500D01*
X15022501Y-10513500D02*
X15052501Y-10543500D01*
X15052501Y-10513500D02*
X15022501Y-10543500D01*
X15062501Y-10933500D02*
X15092501Y-10963500D01*
X15092501Y-10933500D02*
X15062501Y-10963500D01*
X15122501Y-10593500D02*
X15152501Y-10623500D01*
X15152501Y-10593500D02*
X15122501Y-10623500D01*
X15142501Y-12933500D02*
X15172501Y-12963500D01*
X15172501Y-12933500D02*
X15142501Y-12963500D01*
X15165001Y-10853500D02*
X15195001Y-10883500D01*
X15195001Y-10853500D02*
X15165001Y-10883500D01*
X15222501Y-10596000D02*
X15252501Y-10626000D01*
X15252501Y-10596000D02*
X15222501Y-10626000D01*
X15262501Y-11053500D02*
X15292501Y-11083500D01*
X15292501Y-11053500D02*
X15262501Y-11083500D01*
X15302501Y-10593500D02*
X15332501Y-10623500D01*
X15332501Y-10593500D02*
X15302501Y-10623500D01*
X15355001Y-10853500D02*
X15385001Y-10883500D01*
X15385001Y-10853500D02*
X15355001Y-10883500D01*
X15422501Y-10596000D02*
X15452501Y-10626000D01*
X15452501Y-10596000D02*
X15422501Y-10626000D01*
X15442501Y-12673500D02*
X15472501Y-12703500D01*
X15472501Y-12673500D02*
X15442501Y-12703500D01*
X15462501Y-10933500D02*
X15492501Y-10963500D01*
X15492501Y-10933500D02*
X15462501Y-10963500D01*
X15502501Y-12973500D02*
X15532501Y-13003500D01*
X15532501Y-12973500D02*
X15502501Y-13003500D01*
X15522501Y-10593500D02*
X15552501Y-10623500D01*
X15552501Y-10593500D02*
X15522501Y-10623500D01*
X15582501Y-10873500D02*
X15612501Y-10903500D01*
X15612501Y-10873500D02*
X15582501Y-10903500D01*
X15602501Y-12973500D02*
X15632501Y-13003500D01*
X15632501Y-12973500D02*
X15602501Y-13003500D01*
X15617501Y-10593500D02*
X15647501Y-10623500D01*
X15647501Y-10593500D02*
X15617501Y-10623500D01*
X16002501Y-12953500D02*
X16032501Y-12983500D01*
X16032501Y-12953500D02*
X16002501Y-12983500D01*
X16142501Y-12953500D02*
X16172501Y-12983500D01*
X16172501Y-12953500D02*
X16142501Y-12983500D01*
X16292501Y-12963500D02*
X16322501Y-12993500D01*
X16322501Y-12963500D02*
X16292501Y-12993500D01*
X16362501Y-13153500D02*
X16392501Y-13183500D01*
X16392501Y-13153500D02*
X16362501Y-13183500D01*
X16402501Y-10873500D02*
X16432501Y-10903500D01*
X16432501Y-10873500D02*
X16402501Y-10903500D01*
X16642501Y-11413500D02*
X16672501Y-11443500D01*
X16672501Y-11413500D02*
X16642501Y-11443500D01*
X16771001Y-12765000D02*
X16801001Y-12795000D01*
X16801001Y-12765000D02*
X16771001Y-12795000D01*
X16782501Y-11093500D02*
X16812501Y-11123500D01*
X16812501Y-11093500D02*
X16782501Y-11123500D01*
X16902501Y-11813500D02*
X16932501Y-11843500D01*
X16932501Y-11813500D02*
X16902501Y-11843500D01*
X16942501Y-12793500D02*
X16972501Y-12823500D01*
X16972501Y-12793500D02*
X16942501Y-12823500D01*
X17082501Y-11043500D02*
X17112501Y-11073500D01*
X17112501Y-11043500D02*
X17082501Y-11073500D01*
X17082501Y-11163500D02*
X17112501Y-11193500D01*
X17112501Y-11163500D02*
X17082501Y-11193500D01*
X17082501Y-11283500D02*
X17112501Y-11313500D01*
X17112501Y-11283500D02*
X17082501Y-11313500D01*
X17282501Y-12773500D02*
X17312501Y-12803500D01*
X17312501Y-12773500D02*
X17282501Y-12803500D01*
X17542501Y-12373500D02*
X17572501Y-12403500D01*
X17572501Y-12373500D02*
X17542501Y-12403500D01*
X17542501Y-13373500D02*
X17572501Y-13403500D01*
X17572501Y-13373500D02*
X17542501Y-13403500D01*
X17642501Y-11263500D02*
X17672501Y-11293500D01*
X17672501Y-11263500D02*
X17642501Y-11293500D01*
X17660001Y-12771000D02*
X17690001Y-12801000D01*
X17690001Y-12771000D02*
X17660001Y-12801000D01*
X17782501Y-10943500D02*
X17812501Y-10973500D01*
X17812501Y-10943500D02*
X17782501Y-10973500D01*
X17782501Y-11383500D02*
X17812501Y-11413500D01*
X17812501Y-11383500D02*
X17782501Y-11413500D01*
X17782501Y-12373500D02*
X17812501Y-12403500D01*
X17812501Y-12373500D02*
X17782501Y-12403500D01*
X17922501Y-12773500D02*
X17952501Y-12803500D01*
X17952501Y-12773500D02*
X17922501Y-12803500D01*
X17920001Y-10678500D02*
G75*
G02*
X17870001Y-10678500I-25000J0D01*
G01*
X17870001Y-10678500D02*
G75*
G02*
X17920001Y-10678500I25000J0D01*
G01*
X17920001Y-10778500D02*
G75*
G02*
X17870001Y-10778500I-25000J0D01*
G01*
X17870001Y-10778500D02*
G75*
G02*
X17920001Y-10778500I25000J0D01*
G01*
D11*
X13210778Y-14197484D02*
X13210778Y-13997484D01*
X13210778Y-13997484D02*
X13258397Y-13997484D01*
X13258397Y-13997484D02*
X13286968Y-14007007D01*
X13286968Y-14007007D02*
X13306016Y-14026055D01*
X13306016Y-14026055D02*
X13315539Y-14045103D01*
X13315539Y-14045103D02*
X13325063Y-14083198D01*
X13325063Y-14083198D02*
X13325063Y-14111769D01*
X13325063Y-14111769D02*
X13315539Y-14149865D01*
X13315539Y-14149865D02*
X13306016Y-14168912D01*
X13306016Y-14168912D02*
X13286968Y-14187960D01*
X13286968Y-14187960D02*
X13258397Y-14197484D01*
X13258397Y-14197484D02*
X13210778Y-14197484D01*
X13410778Y-14197484D02*
X13410778Y-14064150D01*
X13410778Y-14102246D02*
X13420301Y-14083198D01*
X13420301Y-14083198D02*
X13429825Y-14073674D01*
X13429825Y-14073674D02*
X13448873Y-14064150D01*
X13448873Y-14064150D02*
X13467920Y-14064150D01*
X13534587Y-14197484D02*
X13534587Y-14064150D01*
X13534587Y-13997484D02*
X13525063Y-14007007D01*
X13525063Y-14007007D02*
X13534587Y-14016531D01*
X13534587Y-14016531D02*
X13544111Y-14007007D01*
X13544111Y-14007007D02*
X13534587Y-13997484D01*
X13534587Y-13997484D02*
X13534587Y-14016531D01*
X13658397Y-14197484D02*
X13639349Y-14187960D01*
X13639349Y-14187960D02*
X13629825Y-14168912D01*
X13629825Y-14168912D02*
X13629825Y-13997484D01*
X13763158Y-14197484D02*
X13744111Y-14187960D01*
X13744111Y-14187960D02*
X13734587Y-14168912D01*
X13734587Y-14168912D02*
X13734587Y-13997484D01*
X13991730Y-14197484D02*
X13991730Y-13997484D01*
X13991730Y-13997484D02*
X14058397Y-14140341D01*
X14058397Y-14140341D02*
X14125063Y-13997484D01*
X14125063Y-13997484D02*
X14125063Y-14197484D01*
X14306016Y-14197484D02*
X14306016Y-14092722D01*
X14306016Y-14092722D02*
X14296492Y-14073674D01*
X14296492Y-14073674D02*
X14277444Y-14064150D01*
X14277444Y-14064150D02*
X14239349Y-14064150D01*
X14239349Y-14064150D02*
X14220301Y-14073674D01*
X14306016Y-14187960D02*
X14286968Y-14197484D01*
X14286968Y-14197484D02*
X14239349Y-14197484D01*
X14239349Y-14197484D02*
X14220301Y-14187960D01*
X14220301Y-14187960D02*
X14210778Y-14168912D01*
X14210778Y-14168912D02*
X14210778Y-14149865D01*
X14210778Y-14149865D02*
X14220301Y-14130817D01*
X14220301Y-14130817D02*
X14239349Y-14121293D01*
X14239349Y-14121293D02*
X14286968Y-14121293D01*
X14286968Y-14121293D02*
X14306016Y-14111769D01*
X14401254Y-14064150D02*
X14401254Y-14264150D01*
X14401254Y-14073674D02*
X14420301Y-14064150D01*
X14420301Y-14064150D02*
X14458397Y-14064150D01*
X14458397Y-14064150D02*
X14477444Y-14073674D01*
X14477444Y-14073674D02*
X14486968Y-14083198D01*
X14486968Y-14083198D02*
X14496492Y-14102246D01*
X14496492Y-14102246D02*
X14496492Y-14159388D01*
X14496492Y-14159388D02*
X14486968Y-14178436D01*
X14486968Y-14178436D02*
X14477444Y-14187960D01*
X14477444Y-14187960D02*
X14458397Y-14197484D01*
X14458397Y-14197484D02*
X14420301Y-14197484D01*
X14420301Y-14197484D02*
X14401254Y-14187960D01*
X14582206Y-14178436D02*
X14591730Y-14187960D01*
X14591730Y-14187960D02*
X14582206Y-14197484D01*
X14582206Y-14197484D02*
X14572682Y-14187960D01*
X14572682Y-14187960D02*
X14582206Y-14178436D01*
X14582206Y-14178436D02*
X14582206Y-14197484D01*
X14582206Y-14073674D02*
X14591730Y-14083198D01*
X14591730Y-14083198D02*
X14582206Y-14092722D01*
X14582206Y-14092722D02*
X14572682Y-14083198D01*
X14572682Y-14083198D02*
X14582206Y-14073674D01*
X14582206Y-14073674D02*
X14582206Y-14092722D01*
D12*
X12920001Y-14511000D02*
X12950001Y-14541000D01*
X12950001Y-14511000D02*
X12920001Y-14541000D01*
D11*
X13248873Y-14417484D02*
X13267920Y-14417484D01*
X13267920Y-14417484D02*
X13286968Y-14427007D01*
X13286968Y-14427007D02*
X13296492Y-14436531D01*
X13296492Y-14436531D02*
X13306016Y-14455579D01*
X13306016Y-14455579D02*
X13315539Y-14493674D01*
X13315539Y-14493674D02*
X13315539Y-14541293D01*
X13315539Y-14541293D02*
X13306016Y-14579388D01*
X13306016Y-14579388D02*
X13296492Y-14598436D01*
X13296492Y-14598436D02*
X13286968Y-14607960D01*
X13286968Y-14607960D02*
X13267920Y-14617484D01*
X13267920Y-14617484D02*
X13248873Y-14617484D01*
X13248873Y-14617484D02*
X13229825Y-14607960D01*
X13229825Y-14607960D02*
X13220301Y-14598436D01*
X13220301Y-14598436D02*
X13210778Y-14579388D01*
X13210778Y-14579388D02*
X13201254Y-14541293D01*
X13201254Y-14541293D02*
X13201254Y-14493674D01*
X13201254Y-14493674D02*
X13210778Y-14455579D01*
X13210778Y-14455579D02*
X13220301Y-14436531D01*
X13220301Y-14436531D02*
X13229825Y-14427007D01*
X13229825Y-14427007D02*
X13248873Y-14417484D01*
X13401254Y-14598436D02*
X13410778Y-14607960D01*
X13410778Y-14607960D02*
X13401254Y-14617484D01*
X13401254Y-14617484D02*
X13391730Y-14607960D01*
X13391730Y-14607960D02*
X13401254Y-14598436D01*
X13401254Y-14598436D02*
X13401254Y-14617484D01*
X13477444Y-14417484D02*
X13601254Y-14417484D01*
X13601254Y-14417484D02*
X13534587Y-14493674D01*
X13534587Y-14493674D02*
X13563159Y-14493674D01*
X13563159Y-14493674D02*
X13582206Y-14503198D01*
X13582206Y-14503198D02*
X13591730Y-14512722D01*
X13591730Y-14512722D02*
X13601254Y-14531769D01*
X13601254Y-14531769D02*
X13601254Y-14579388D01*
X13601254Y-14579388D02*
X13591730Y-14598436D01*
X13591730Y-14598436D02*
X13582206Y-14607960D01*
X13582206Y-14607960D02*
X13563159Y-14617484D01*
X13563159Y-14617484D02*
X13506016Y-14617484D01*
X13506016Y-14617484D02*
X13486968Y-14607960D01*
X13486968Y-14607960D02*
X13477444Y-14598436D01*
X13725063Y-14417484D02*
X13744111Y-14417484D01*
X13744111Y-14417484D02*
X13763159Y-14427007D01*
X13763159Y-14427007D02*
X13772682Y-14436531D01*
X13772682Y-14436531D02*
X13782206Y-14455579D01*
X13782206Y-14455579D02*
X13791730Y-14493674D01*
X13791730Y-14493674D02*
X13791730Y-14541293D01*
X13791730Y-14541293D02*
X13782206Y-14579388D01*
X13782206Y-14579388D02*
X13772682Y-14598436D01*
X13772682Y-14598436D02*
X13763159Y-14607960D01*
X13763159Y-14607960D02*
X13744111Y-14617484D01*
X13744111Y-14617484D02*
X13725063Y-14617484D01*
X13725063Y-14617484D02*
X13706016Y-14607960D01*
X13706016Y-14607960D02*
X13696492Y-14598436D01*
X13696492Y-14598436D02*
X13686968Y-14579388D01*
X13686968Y-14579388D02*
X13677444Y-14541293D01*
X13677444Y-14541293D02*
X13677444Y-14493674D01*
X13677444Y-14493674D02*
X13686968Y-14455579D01*
X13686968Y-14455579D02*
X13696492Y-14436531D01*
X13696492Y-14436531D02*
X13706016Y-14427007D01*
X13706016Y-14427007D02*
X13725063Y-14417484D01*
X13915539Y-14417484D02*
X13934587Y-14417484D01*
X13934587Y-14417484D02*
X13953635Y-14427007D01*
X13953635Y-14427007D02*
X13963159Y-14436531D01*
X13963159Y-14436531D02*
X13972682Y-14455579D01*
X13972682Y-14455579D02*
X13982206Y-14493674D01*
X13982206Y-14493674D02*
X13982206Y-14541293D01*
X13982206Y-14541293D02*
X13972682Y-14579388D01*
X13972682Y-14579388D02*
X13963159Y-14598436D01*
X13963159Y-14598436D02*
X13953635Y-14607960D01*
X13953635Y-14607960D02*
X13934587Y-14617484D01*
X13934587Y-14617484D02*
X13915539Y-14617484D01*
X13915539Y-14617484D02*
X13896492Y-14607960D01*
X13896492Y-14607960D02*
X13886968Y-14598436D01*
X13886968Y-14598436D02*
X13877444Y-14579388D01*
X13877444Y-14579388D02*
X13867920Y-14541293D01*
X13867920Y-14541293D02*
X13867920Y-14493674D01*
X13867920Y-14493674D02*
X13877444Y-14455579D01*
X13877444Y-14455579D02*
X13886968Y-14436531D01*
X13886968Y-14436531D02*
X13896492Y-14427007D01*
X13896492Y-14427007D02*
X13915539Y-14417484D01*
X14067920Y-14617484D02*
X14067920Y-14484150D01*
X14067920Y-14503198D02*
X14077444Y-14493674D01*
X14077444Y-14493674D02*
X14096492Y-14484150D01*
X14096492Y-14484150D02*
X14125063Y-14484150D01*
X14125063Y-14484150D02*
X14144111Y-14493674D01*
X14144111Y-14493674D02*
X14153635Y-14512722D01*
X14153635Y-14512722D02*
X14153635Y-14617484D01*
X14153635Y-14512722D02*
X14163159Y-14493674D01*
X14163159Y-14493674D02*
X14182206Y-14484150D01*
X14182206Y-14484150D02*
X14210778Y-14484150D01*
X14210778Y-14484150D02*
X14229825Y-14493674D01*
X14229825Y-14493674D02*
X14239349Y-14512722D01*
X14239349Y-14512722D02*
X14239349Y-14617484D01*
X14334587Y-14617484D02*
X14334587Y-14484150D01*
X14334587Y-14503198D02*
X14344111Y-14493674D01*
X14344111Y-14493674D02*
X14363159Y-14484150D01*
X14363159Y-14484150D02*
X14391730Y-14484150D01*
X14391730Y-14484150D02*
X14410778Y-14493674D01*
X14410778Y-14493674D02*
X14420301Y-14512722D01*
X14420301Y-14512722D02*
X14420301Y-14617484D01*
X14420301Y-14512722D02*
X14429825Y-14493674D01*
X14429825Y-14493674D02*
X14448873Y-14484150D01*
X14448873Y-14484150D02*
X14477444Y-14484150D01*
X14477444Y-14484150D02*
X14496492Y-14493674D01*
X14496492Y-14493674D02*
X14506016Y-14512722D01*
X14506016Y-14512722D02*
X14506016Y-14617484D01*
X14896492Y-14407960D02*
X14725063Y-14665103D01*
X15153635Y-14417484D02*
X15172683Y-14417484D01*
X15172683Y-14417484D02*
X15191730Y-14427007D01*
X15191730Y-14427007D02*
X15201254Y-14436531D01*
X15201254Y-14436531D02*
X15210778Y-14455579D01*
X15210778Y-14455579D02*
X15220302Y-14493674D01*
X15220302Y-14493674D02*
X15220302Y-14541293D01*
X15220302Y-14541293D02*
X15210778Y-14579388D01*
X15210778Y-14579388D02*
X15201254Y-14598436D01*
X15201254Y-14598436D02*
X15191730Y-14607960D01*
X15191730Y-14607960D02*
X15172683Y-14617484D01*
X15172683Y-14617484D02*
X15153635Y-14617484D01*
X15153635Y-14617484D02*
X15134587Y-14607960D01*
X15134587Y-14607960D02*
X15125063Y-14598436D01*
X15125063Y-14598436D02*
X15115540Y-14579388D01*
X15115540Y-14579388D02*
X15106016Y-14541293D01*
X15106016Y-14541293D02*
X15106016Y-14493674D01*
X15106016Y-14493674D02*
X15115540Y-14455579D01*
X15115540Y-14455579D02*
X15125063Y-14436531D01*
X15125063Y-14436531D02*
X15134587Y-14427007D01*
X15134587Y-14427007D02*
X15153635Y-14417484D01*
X15306016Y-14598436D02*
X15315540Y-14607960D01*
X15315540Y-14607960D02*
X15306016Y-14617484D01*
X15306016Y-14617484D02*
X15296492Y-14607960D01*
X15296492Y-14607960D02*
X15306016Y-14598436D01*
X15306016Y-14598436D02*
X15306016Y-14617484D01*
X15439349Y-14417484D02*
X15458397Y-14417484D01*
X15458397Y-14417484D02*
X15477444Y-14427007D01*
X15477444Y-14427007D02*
X15486968Y-14436531D01*
X15486968Y-14436531D02*
X15496492Y-14455579D01*
X15496492Y-14455579D02*
X15506016Y-14493674D01*
X15506016Y-14493674D02*
X15506016Y-14541293D01*
X15506016Y-14541293D02*
X15496492Y-14579388D01*
X15496492Y-14579388D02*
X15486968Y-14598436D01*
X15486968Y-14598436D02*
X15477444Y-14607960D01*
X15477444Y-14607960D02*
X15458397Y-14617484D01*
X15458397Y-14617484D02*
X15439349Y-14617484D01*
X15439349Y-14617484D02*
X15420302Y-14607960D01*
X15420302Y-14607960D02*
X15410778Y-14598436D01*
X15410778Y-14598436D02*
X15401254Y-14579388D01*
X15401254Y-14579388D02*
X15391730Y-14541293D01*
X15391730Y-14541293D02*
X15391730Y-14493674D01*
X15391730Y-14493674D02*
X15401254Y-14455579D01*
X15401254Y-14455579D02*
X15410778Y-14436531D01*
X15410778Y-14436531D02*
X15420302Y-14427007D01*
X15420302Y-14427007D02*
X15439349Y-14417484D01*
X15696492Y-14617484D02*
X15582206Y-14617484D01*
X15639349Y-14617484D02*
X15639349Y-14417484D01*
X15639349Y-14417484D02*
X15620302Y-14446055D01*
X15620302Y-14446055D02*
X15601254Y-14465103D01*
X15601254Y-14465103D02*
X15582206Y-14474626D01*
X15886968Y-14617484D02*
X15772683Y-14617484D01*
X15829825Y-14617484D02*
X15829825Y-14417484D01*
X15829825Y-14417484D02*
X15810778Y-14446055D01*
X15810778Y-14446055D02*
X15791730Y-14465103D01*
X15791730Y-14465103D02*
X15772683Y-14474626D01*
X16001254Y-14503198D02*
X15982206Y-14493674D01*
X15982206Y-14493674D02*
X15972683Y-14484150D01*
X15972683Y-14484150D02*
X15963159Y-14465103D01*
X15963159Y-14465103D02*
X15963159Y-14455579D01*
X15963159Y-14455579D02*
X15972683Y-14436531D01*
X15972683Y-14436531D02*
X15982206Y-14427007D01*
X15982206Y-14427007D02*
X16001254Y-14417484D01*
X16001254Y-14417484D02*
X16039349Y-14417484D01*
X16039349Y-14417484D02*
X16058397Y-14427007D01*
X16058397Y-14427007D02*
X16067921Y-14436531D01*
X16067921Y-14436531D02*
X16077444Y-14455579D01*
X16077444Y-14455579D02*
X16077444Y-14465103D01*
X16077444Y-14465103D02*
X16067921Y-14484150D01*
X16067921Y-14484150D02*
X16058397Y-14493674D01*
X16058397Y-14493674D02*
X16039349Y-14503198D01*
X16039349Y-14503198D02*
X16001254Y-14503198D01*
X16001254Y-14503198D02*
X15982206Y-14512722D01*
X15982206Y-14512722D02*
X15972683Y-14522246D01*
X15972683Y-14522246D02*
X15963159Y-14541293D01*
X15963159Y-14541293D02*
X15963159Y-14579388D01*
X15963159Y-14579388D02*
X15972683Y-14598436D01*
X15972683Y-14598436D02*
X15982206Y-14607960D01*
X15982206Y-14607960D02*
X16001254Y-14617484D01*
X16001254Y-14617484D02*
X16039349Y-14617484D01*
X16039349Y-14617484D02*
X16058397Y-14607960D01*
X16058397Y-14607960D02*
X16067921Y-14598436D01*
X16067921Y-14598436D02*
X16077444Y-14579388D01*
X16077444Y-14579388D02*
X16077444Y-14541293D01*
X16077444Y-14541293D02*
X16067921Y-14522246D01*
X16067921Y-14522246D02*
X16058397Y-14512722D01*
X16058397Y-14512722D02*
X16039349Y-14503198D01*
X16153635Y-14417484D02*
X16153635Y-14455579D01*
X16229825Y-14417484D02*
X16229825Y-14455579D01*
X16525064Y-14693674D02*
X16515540Y-14684150D01*
X16515540Y-14684150D02*
X16496492Y-14655579D01*
X16496492Y-14655579D02*
X16486968Y-14636531D01*
X16486968Y-14636531D02*
X16477445Y-14607960D01*
X16477445Y-14607960D02*
X16467921Y-14560341D01*
X16467921Y-14560341D02*
X16467921Y-14522246D01*
X16467921Y-14522246D02*
X16477445Y-14474626D01*
X16477445Y-14474626D02*
X16486968Y-14446055D01*
X16486968Y-14446055D02*
X16496492Y-14427007D01*
X16496492Y-14427007D02*
X16515540Y-14398436D01*
X16515540Y-14398436D02*
X16525064Y-14388912D01*
X16686968Y-14417484D02*
X16648873Y-14417484D01*
X16648873Y-14417484D02*
X16629825Y-14427007D01*
X16629825Y-14427007D02*
X16620302Y-14436531D01*
X16620302Y-14436531D02*
X16601254Y-14465103D01*
X16601254Y-14465103D02*
X16591730Y-14503198D01*
X16591730Y-14503198D02*
X16591730Y-14579388D01*
X16591730Y-14579388D02*
X16601254Y-14598436D01*
X16601254Y-14598436D02*
X16610778Y-14607960D01*
X16610778Y-14607960D02*
X16629825Y-14617484D01*
X16629825Y-14617484D02*
X16667921Y-14617484D01*
X16667921Y-14617484D02*
X16686968Y-14607960D01*
X16686968Y-14607960D02*
X16696492Y-14598436D01*
X16696492Y-14598436D02*
X16706016Y-14579388D01*
X16706016Y-14579388D02*
X16706016Y-14531769D01*
X16706016Y-14531769D02*
X16696492Y-14512722D01*
X16696492Y-14512722D02*
X16686968Y-14503198D01*
X16686968Y-14503198D02*
X16667921Y-14493674D01*
X16667921Y-14493674D02*
X16629825Y-14493674D01*
X16629825Y-14493674D02*
X16610778Y-14503198D01*
X16610778Y-14503198D02*
X16601254Y-14512722D01*
X16601254Y-14512722D02*
X16591730Y-14531769D01*
X16772683Y-14417484D02*
X16906016Y-14417484D01*
X16906016Y-14417484D02*
X16820302Y-14617484D01*
X17134588Y-14617484D02*
X17134588Y-14417484D01*
X17220302Y-14617484D02*
X17220302Y-14512722D01*
X17220302Y-14512722D02*
X17210778Y-14493674D01*
X17210778Y-14493674D02*
X17191730Y-14484150D01*
X17191730Y-14484150D02*
X17163159Y-14484150D01*
X17163159Y-14484150D02*
X17144111Y-14493674D01*
X17144111Y-14493674D02*
X17134588Y-14503198D01*
X17344111Y-14617484D02*
X17325064Y-14607960D01*
X17325064Y-14607960D02*
X17315540Y-14598436D01*
X17315540Y-14598436D02*
X17306016Y-14579388D01*
X17306016Y-14579388D02*
X17306016Y-14522246D01*
X17306016Y-14522246D02*
X17315540Y-14503198D01*
X17315540Y-14503198D02*
X17325064Y-14493674D01*
X17325064Y-14493674D02*
X17344111Y-14484150D01*
X17344111Y-14484150D02*
X17372683Y-14484150D01*
X17372683Y-14484150D02*
X17391730Y-14493674D01*
X17391730Y-14493674D02*
X17401254Y-14503198D01*
X17401254Y-14503198D02*
X17410778Y-14522246D01*
X17410778Y-14522246D02*
X17410778Y-14579388D01*
X17410778Y-14579388D02*
X17401254Y-14598436D01*
X17401254Y-14598436D02*
X17391730Y-14607960D01*
X17391730Y-14607960D02*
X17372683Y-14617484D01*
X17372683Y-14617484D02*
X17344111Y-14617484D01*
X17525064Y-14617484D02*
X17506016Y-14607960D01*
X17506016Y-14607960D02*
X17496492Y-14588912D01*
X17496492Y-14588912D02*
X17496492Y-14417484D01*
X17677445Y-14607960D02*
X17658397Y-14617484D01*
X17658397Y-14617484D02*
X17620302Y-14617484D01*
X17620302Y-14617484D02*
X17601254Y-14607960D01*
X17601254Y-14607960D02*
X17591730Y-14588912D01*
X17591730Y-14588912D02*
X17591730Y-14512722D01*
X17591730Y-14512722D02*
X17601254Y-14493674D01*
X17601254Y-14493674D02*
X17620302Y-14484150D01*
X17620302Y-14484150D02*
X17658397Y-14484150D01*
X17658397Y-14484150D02*
X17677445Y-14493674D01*
X17677445Y-14493674D02*
X17686969Y-14512722D01*
X17686969Y-14512722D02*
X17686969Y-14531769D01*
X17686969Y-14531769D02*
X17591730Y-14550817D01*
X17763159Y-14607960D02*
X17782207Y-14617484D01*
X17782207Y-14617484D02*
X17820302Y-14617484D01*
X17820302Y-14617484D02*
X17839350Y-14607960D01*
X17839350Y-14607960D02*
X17848873Y-14588912D01*
X17848873Y-14588912D02*
X17848873Y-14579388D01*
X17848873Y-14579388D02*
X17839350Y-14560341D01*
X17839350Y-14560341D02*
X17820302Y-14550817D01*
X17820302Y-14550817D02*
X17791730Y-14550817D01*
X17791730Y-14550817D02*
X17772683Y-14541293D01*
X17772683Y-14541293D02*
X17763159Y-14522246D01*
X17763159Y-14522246D02*
X17763159Y-14512722D01*
X17763159Y-14512722D02*
X17772683Y-14493674D01*
X17772683Y-14493674D02*
X17791730Y-14484150D01*
X17791730Y-14484150D02*
X17820302Y-14484150D01*
X17820302Y-14484150D02*
X17839350Y-14493674D01*
X17915540Y-14693674D02*
X17925064Y-14684150D01*
X17925064Y-14684150D02*
X17944111Y-14655579D01*
X17944111Y-14655579D02*
X17953635Y-14636531D01*
X17953635Y-14636531D02*
X17963159Y-14607960D01*
X17963159Y-14607960D02*
X17972683Y-14560341D01*
X17972683Y-14560341D02*
X17972683Y-14522246D01*
X17972683Y-14522246D02*
X17963159Y-14474626D01*
X17963159Y-14474626D02*
X17953635Y-14446055D01*
X17953635Y-14446055D02*
X17944111Y-14427007D01*
X17944111Y-14427007D02*
X17925064Y-14398436D01*
X17925064Y-14398436D02*
X17915540Y-14388912D01*
D12*
X12950001Y-14790000D02*
G75*
G02*
X12900001Y-14790000I-25000J0D01*
G01*
X12900001Y-14790000D02*
G75*
G02*
X12950001Y-14790000I25000J0D01*
G01*
D11*
X13248873Y-14681484D02*
X13267920Y-14681484D01*
X13267920Y-14681484D02*
X13286968Y-14691007D01*
X13286968Y-14691007D02*
X13296492Y-14700531D01*
X13296492Y-14700531D02*
X13306016Y-14719579D01*
X13306016Y-14719579D02*
X13315539Y-14757674D01*
X13315539Y-14757674D02*
X13315539Y-14805293D01*
X13315539Y-14805293D02*
X13306016Y-14843388D01*
X13306016Y-14843388D02*
X13296492Y-14862436D01*
X13296492Y-14862436D02*
X13286968Y-14871960D01*
X13286968Y-14871960D02*
X13267920Y-14881484D01*
X13267920Y-14881484D02*
X13248873Y-14881484D01*
X13248873Y-14881484D02*
X13229825Y-14871960D01*
X13229825Y-14871960D02*
X13220301Y-14862436D01*
X13220301Y-14862436D02*
X13210778Y-14843388D01*
X13210778Y-14843388D02*
X13201254Y-14805293D01*
X13201254Y-14805293D02*
X13201254Y-14757674D01*
X13201254Y-14757674D02*
X13210778Y-14719579D01*
X13210778Y-14719579D02*
X13220301Y-14700531D01*
X13220301Y-14700531D02*
X13229825Y-14691007D01*
X13229825Y-14691007D02*
X13248873Y-14681484D01*
X13401254Y-14862436D02*
X13410778Y-14871960D01*
X13410778Y-14871960D02*
X13401254Y-14881484D01*
X13401254Y-14881484D02*
X13391730Y-14871960D01*
X13391730Y-14871960D02*
X13401254Y-14862436D01*
X13401254Y-14862436D02*
X13401254Y-14881484D01*
X13591730Y-14681484D02*
X13496492Y-14681484D01*
X13496492Y-14681484D02*
X13486968Y-14776722D01*
X13486968Y-14776722D02*
X13496492Y-14767198D01*
X13496492Y-14767198D02*
X13515539Y-14757674D01*
X13515539Y-14757674D02*
X13563159Y-14757674D01*
X13563159Y-14757674D02*
X13582206Y-14767198D01*
X13582206Y-14767198D02*
X13591730Y-14776722D01*
X13591730Y-14776722D02*
X13601254Y-14795769D01*
X13601254Y-14795769D02*
X13601254Y-14843388D01*
X13601254Y-14843388D02*
X13591730Y-14862436D01*
X13591730Y-14862436D02*
X13582206Y-14871960D01*
X13582206Y-14871960D02*
X13563159Y-14881484D01*
X13563159Y-14881484D02*
X13515539Y-14881484D01*
X13515539Y-14881484D02*
X13496492Y-14871960D01*
X13496492Y-14871960D02*
X13486968Y-14862436D01*
X13725063Y-14681484D02*
X13744111Y-14681484D01*
X13744111Y-14681484D02*
X13763159Y-14691007D01*
X13763159Y-14691007D02*
X13772682Y-14700531D01*
X13772682Y-14700531D02*
X13782206Y-14719579D01*
X13782206Y-14719579D02*
X13791730Y-14757674D01*
X13791730Y-14757674D02*
X13791730Y-14805293D01*
X13791730Y-14805293D02*
X13782206Y-14843388D01*
X13782206Y-14843388D02*
X13772682Y-14862436D01*
X13772682Y-14862436D02*
X13763159Y-14871960D01*
X13763159Y-14871960D02*
X13744111Y-14881484D01*
X13744111Y-14881484D02*
X13725063Y-14881484D01*
X13725063Y-14881484D02*
X13706016Y-14871960D01*
X13706016Y-14871960D02*
X13696492Y-14862436D01*
X13696492Y-14862436D02*
X13686968Y-14843388D01*
X13686968Y-14843388D02*
X13677444Y-14805293D01*
X13677444Y-14805293D02*
X13677444Y-14757674D01*
X13677444Y-14757674D02*
X13686968Y-14719579D01*
X13686968Y-14719579D02*
X13696492Y-14700531D01*
X13696492Y-14700531D02*
X13706016Y-14691007D01*
X13706016Y-14691007D02*
X13725063Y-14681484D01*
X13915539Y-14681484D02*
X13934587Y-14681484D01*
X13934587Y-14681484D02*
X13953635Y-14691007D01*
X13953635Y-14691007D02*
X13963159Y-14700531D01*
X13963159Y-14700531D02*
X13972682Y-14719579D01*
X13972682Y-14719579D02*
X13982206Y-14757674D01*
X13982206Y-14757674D02*
X13982206Y-14805293D01*
X13982206Y-14805293D02*
X13972682Y-14843388D01*
X13972682Y-14843388D02*
X13963159Y-14862436D01*
X13963159Y-14862436D02*
X13953635Y-14871960D01*
X13953635Y-14871960D02*
X13934587Y-14881484D01*
X13934587Y-14881484D02*
X13915539Y-14881484D01*
X13915539Y-14881484D02*
X13896492Y-14871960D01*
X13896492Y-14871960D02*
X13886968Y-14862436D01*
X13886968Y-14862436D02*
X13877444Y-14843388D01*
X13877444Y-14843388D02*
X13867920Y-14805293D01*
X13867920Y-14805293D02*
X13867920Y-14757674D01*
X13867920Y-14757674D02*
X13877444Y-14719579D01*
X13877444Y-14719579D02*
X13886968Y-14700531D01*
X13886968Y-14700531D02*
X13896492Y-14691007D01*
X13896492Y-14691007D02*
X13915539Y-14681484D01*
X14067920Y-14881484D02*
X14067920Y-14748150D01*
X14067920Y-14767198D02*
X14077444Y-14757674D01*
X14077444Y-14757674D02*
X14096492Y-14748150D01*
X14096492Y-14748150D02*
X14125063Y-14748150D01*
X14125063Y-14748150D02*
X14144111Y-14757674D01*
X14144111Y-14757674D02*
X14153635Y-14776722D01*
X14153635Y-14776722D02*
X14153635Y-14881484D01*
X14153635Y-14776722D02*
X14163159Y-14757674D01*
X14163159Y-14757674D02*
X14182206Y-14748150D01*
X14182206Y-14748150D02*
X14210778Y-14748150D01*
X14210778Y-14748150D02*
X14229825Y-14757674D01*
X14229825Y-14757674D02*
X14239349Y-14776722D01*
X14239349Y-14776722D02*
X14239349Y-14881484D01*
X14334587Y-14881484D02*
X14334587Y-14748150D01*
X14334587Y-14767198D02*
X14344111Y-14757674D01*
X14344111Y-14757674D02*
X14363159Y-14748150D01*
X14363159Y-14748150D02*
X14391730Y-14748150D01*
X14391730Y-14748150D02*
X14410778Y-14757674D01*
X14410778Y-14757674D02*
X14420301Y-14776722D01*
X14420301Y-14776722D02*
X14420301Y-14881484D01*
X14420301Y-14776722D02*
X14429825Y-14757674D01*
X14429825Y-14757674D02*
X14448873Y-14748150D01*
X14448873Y-14748150D02*
X14477444Y-14748150D01*
X14477444Y-14748150D02*
X14496492Y-14757674D01*
X14496492Y-14757674D02*
X14506016Y-14776722D01*
X14506016Y-14776722D02*
X14506016Y-14881484D01*
X14896492Y-14671960D02*
X14725063Y-14929103D01*
X15153635Y-14681484D02*
X15172683Y-14681484D01*
X15172683Y-14681484D02*
X15191730Y-14691007D01*
X15191730Y-14691007D02*
X15201254Y-14700531D01*
X15201254Y-14700531D02*
X15210778Y-14719579D01*
X15210778Y-14719579D02*
X15220302Y-14757674D01*
X15220302Y-14757674D02*
X15220302Y-14805293D01*
X15220302Y-14805293D02*
X15210778Y-14843388D01*
X15210778Y-14843388D02*
X15201254Y-14862436D01*
X15201254Y-14862436D02*
X15191730Y-14871960D01*
X15191730Y-14871960D02*
X15172683Y-14881484D01*
X15172683Y-14881484D02*
X15153635Y-14881484D01*
X15153635Y-14881484D02*
X15134587Y-14871960D01*
X15134587Y-14871960D02*
X15125063Y-14862436D01*
X15125063Y-14862436D02*
X15115540Y-14843388D01*
X15115540Y-14843388D02*
X15106016Y-14805293D01*
X15106016Y-14805293D02*
X15106016Y-14757674D01*
X15106016Y-14757674D02*
X15115540Y-14719579D01*
X15115540Y-14719579D02*
X15125063Y-14700531D01*
X15125063Y-14700531D02*
X15134587Y-14691007D01*
X15134587Y-14691007D02*
X15153635Y-14681484D01*
X15306016Y-14862436D02*
X15315540Y-14871960D01*
X15315540Y-14871960D02*
X15306016Y-14881484D01*
X15306016Y-14881484D02*
X15296492Y-14871960D01*
X15296492Y-14871960D02*
X15306016Y-14862436D01*
X15306016Y-14862436D02*
X15306016Y-14881484D01*
X15439349Y-14681484D02*
X15458397Y-14681484D01*
X15458397Y-14681484D02*
X15477444Y-14691007D01*
X15477444Y-14691007D02*
X15486968Y-14700531D01*
X15486968Y-14700531D02*
X15496492Y-14719579D01*
X15496492Y-14719579D02*
X15506016Y-14757674D01*
X15506016Y-14757674D02*
X15506016Y-14805293D01*
X15506016Y-14805293D02*
X15496492Y-14843388D01*
X15496492Y-14843388D02*
X15486968Y-14862436D01*
X15486968Y-14862436D02*
X15477444Y-14871960D01*
X15477444Y-14871960D02*
X15458397Y-14881484D01*
X15458397Y-14881484D02*
X15439349Y-14881484D01*
X15439349Y-14881484D02*
X15420302Y-14871960D01*
X15420302Y-14871960D02*
X15410778Y-14862436D01*
X15410778Y-14862436D02*
X15401254Y-14843388D01*
X15401254Y-14843388D02*
X15391730Y-14805293D01*
X15391730Y-14805293D02*
X15391730Y-14757674D01*
X15391730Y-14757674D02*
X15401254Y-14719579D01*
X15401254Y-14719579D02*
X15410778Y-14700531D01*
X15410778Y-14700531D02*
X15420302Y-14691007D01*
X15420302Y-14691007D02*
X15439349Y-14681484D01*
X15696492Y-14881484D02*
X15582206Y-14881484D01*
X15639349Y-14881484D02*
X15639349Y-14681484D01*
X15639349Y-14681484D02*
X15620302Y-14710055D01*
X15620302Y-14710055D02*
X15601254Y-14729103D01*
X15601254Y-14729103D02*
X15582206Y-14738626D01*
X15791730Y-14881484D02*
X15829825Y-14881484D01*
X15829825Y-14881484D02*
X15848873Y-14871960D01*
X15848873Y-14871960D02*
X15858397Y-14862436D01*
X15858397Y-14862436D02*
X15877444Y-14833865D01*
X15877444Y-14833865D02*
X15886968Y-14795769D01*
X15886968Y-14795769D02*
X15886968Y-14719579D01*
X15886968Y-14719579D02*
X15877444Y-14700531D01*
X15877444Y-14700531D02*
X15867921Y-14691007D01*
X15867921Y-14691007D02*
X15848873Y-14681484D01*
X15848873Y-14681484D02*
X15810778Y-14681484D01*
X15810778Y-14681484D02*
X15791730Y-14691007D01*
X15791730Y-14691007D02*
X15782206Y-14700531D01*
X15782206Y-14700531D02*
X15772683Y-14719579D01*
X15772683Y-14719579D02*
X15772683Y-14767198D01*
X15772683Y-14767198D02*
X15782206Y-14786246D01*
X15782206Y-14786246D02*
X15791730Y-14795769D01*
X15791730Y-14795769D02*
X15810778Y-14805293D01*
X15810778Y-14805293D02*
X15848873Y-14805293D01*
X15848873Y-14805293D02*
X15867921Y-14795769D01*
X15867921Y-14795769D02*
X15877444Y-14786246D01*
X15877444Y-14786246D02*
X15886968Y-14767198D01*
X15953635Y-14681484D02*
X16086968Y-14681484D01*
X16086968Y-14681484D02*
X16001254Y-14881484D01*
X16153635Y-14681484D02*
X16153635Y-14719579D01*
X16229825Y-14681484D02*
X16229825Y-14719579D01*
X16525064Y-14957674D02*
X16515540Y-14948150D01*
X16515540Y-14948150D02*
X16496492Y-14919579D01*
X16496492Y-14919579D02*
X16486968Y-14900531D01*
X16486968Y-14900531D02*
X16477445Y-14871960D01*
X16477445Y-14871960D02*
X16467921Y-14824341D01*
X16467921Y-14824341D02*
X16467921Y-14786246D01*
X16467921Y-14786246D02*
X16477445Y-14738626D01*
X16477445Y-14738626D02*
X16486968Y-14710055D01*
X16486968Y-14710055D02*
X16496492Y-14691007D01*
X16496492Y-14691007D02*
X16515540Y-14662436D01*
X16515540Y-14662436D02*
X16525064Y-14652912D01*
X16591730Y-14700531D02*
X16601254Y-14691007D01*
X16601254Y-14691007D02*
X16620302Y-14681484D01*
X16620302Y-14681484D02*
X16667921Y-14681484D01*
X16667921Y-14681484D02*
X16686968Y-14691007D01*
X16686968Y-14691007D02*
X16696492Y-14700531D01*
X16696492Y-14700531D02*
X16706016Y-14719579D01*
X16706016Y-14719579D02*
X16706016Y-14738626D01*
X16706016Y-14738626D02*
X16696492Y-14767198D01*
X16696492Y-14767198D02*
X16582206Y-14881484D01*
X16582206Y-14881484D02*
X16706016Y-14881484D01*
X16944111Y-14881484D02*
X16944111Y-14681484D01*
X17029826Y-14881484D02*
X17029826Y-14776722D01*
X17029826Y-14776722D02*
X17020302Y-14757674D01*
X17020302Y-14757674D02*
X17001254Y-14748150D01*
X17001254Y-14748150D02*
X16972683Y-14748150D01*
X16972683Y-14748150D02*
X16953635Y-14757674D01*
X16953635Y-14757674D02*
X16944111Y-14767198D01*
X17153635Y-14881484D02*
X17134588Y-14871960D01*
X17134588Y-14871960D02*
X17125064Y-14862436D01*
X17125064Y-14862436D02*
X17115540Y-14843388D01*
X17115540Y-14843388D02*
X17115540Y-14786246D01*
X17115540Y-14786246D02*
X17125064Y-14767198D01*
X17125064Y-14767198D02*
X17134588Y-14757674D01*
X17134588Y-14757674D02*
X17153635Y-14748150D01*
X17153635Y-14748150D02*
X17182207Y-14748150D01*
X17182207Y-14748150D02*
X17201254Y-14757674D01*
X17201254Y-14757674D02*
X17210778Y-14767198D01*
X17210778Y-14767198D02*
X17220302Y-14786246D01*
X17220302Y-14786246D02*
X17220302Y-14843388D01*
X17220302Y-14843388D02*
X17210778Y-14862436D01*
X17210778Y-14862436D02*
X17201254Y-14871960D01*
X17201254Y-14871960D02*
X17182207Y-14881484D01*
X17182207Y-14881484D02*
X17153635Y-14881484D01*
X17334588Y-14881484D02*
X17315540Y-14871960D01*
X17315540Y-14871960D02*
X17306016Y-14852912D01*
X17306016Y-14852912D02*
X17306016Y-14681484D01*
X17486969Y-14871960D02*
X17467921Y-14881484D01*
X17467921Y-14881484D02*
X17429826Y-14881484D01*
X17429826Y-14881484D02*
X17410778Y-14871960D01*
X17410778Y-14871960D02*
X17401254Y-14852912D01*
X17401254Y-14852912D02*
X17401254Y-14776722D01*
X17401254Y-14776722D02*
X17410778Y-14757674D01*
X17410778Y-14757674D02*
X17429826Y-14748150D01*
X17429826Y-14748150D02*
X17467921Y-14748150D01*
X17467921Y-14748150D02*
X17486969Y-14757674D01*
X17486969Y-14757674D02*
X17496492Y-14776722D01*
X17496492Y-14776722D02*
X17496492Y-14795769D01*
X17496492Y-14795769D02*
X17401254Y-14814817D01*
X17572683Y-14871960D02*
X17591730Y-14881484D01*
X17591730Y-14881484D02*
X17629826Y-14881484D01*
X17629826Y-14881484D02*
X17648873Y-14871960D01*
X17648873Y-14871960D02*
X17658397Y-14852912D01*
X17658397Y-14852912D02*
X17658397Y-14843388D01*
X17658397Y-14843388D02*
X17648873Y-14824341D01*
X17648873Y-14824341D02*
X17629826Y-14814817D01*
X17629826Y-14814817D02*
X17601254Y-14814817D01*
X17601254Y-14814817D02*
X17582207Y-14805293D01*
X17582207Y-14805293D02*
X17572683Y-14786246D01*
X17572683Y-14786246D02*
X17572683Y-14776722D01*
X17572683Y-14776722D02*
X17582207Y-14757674D01*
X17582207Y-14757674D02*
X17601254Y-14748150D01*
X17601254Y-14748150D02*
X17629826Y-14748150D01*
X17629826Y-14748150D02*
X17648873Y-14757674D01*
X17725064Y-14957674D02*
X17734588Y-14948150D01*
X17734588Y-14948150D02*
X17753635Y-14919579D01*
X17753635Y-14919579D02*
X17763159Y-14900531D01*
X17763159Y-14900531D02*
X17772683Y-14871960D01*
X17772683Y-14871960D02*
X17782207Y-14824341D01*
X17782207Y-14824341D02*
X17782207Y-14786246D01*
X17782207Y-14786246D02*
X17772683Y-14738626D01*
X17772683Y-14738626D02*
X17763159Y-14710055D01*
X17763159Y-14710055D02*
X17753635Y-14691007D01*
X17753635Y-14691007D02*
X17734588Y-14662436D01*
X17734588Y-14662436D02*
X17725064Y-14652912D01*
M02*
