%TF.GenerationSoftware,KiCad,Pcbnew,8.0.9-8.0.9-0~ubuntu22.04.1*%
%TF.CreationDate,2025-08-19T21:28:46+02:00*%
%TF.ProjectId,KG_Disp_Adapter,4b475f44-6973-4705-9f41-646170746572,rev?*%
%TF.SameCoordinates,Original*%
%TF.FileFunction,Legend,Bot*%
%TF.FilePolarity,Positive*%
%FSLAX46Y46*%
G04 Gerber Fmt 4.6, Leading zero omitted, Abs format (unit mm)*
G04 Created by KiCad (PCBNEW 8.0.9-8.0.9-0~ubuntu22.04.1) date 2025-08-19 21:28:46*
%MOMM*%
%LPD*%
G01*
G04 APERTURE LIST*
%ADD10C,0.150000*%
%ADD11C,0.120000*%
G04 APERTURE END LIST*
D10*
X174955959Y-107758865D02*
X174194055Y-107758865D01*
X174575007Y-108139818D02*
X174575007Y-107377913D01*
X172755959Y-130958865D02*
X171994055Y-130958865D01*
X172375007Y-131339818D02*
X172375007Y-130577913D01*
X166051199Y-138139818D02*
X166051199Y-137139818D01*
X165479771Y-138139818D02*
X165908342Y-137568389D01*
X165479771Y-137139818D02*
X166051199Y-137711246D01*
X164527390Y-137187437D02*
X164622628Y-137139818D01*
X164622628Y-137139818D02*
X164765485Y-137139818D01*
X164765485Y-137139818D02*
X164908342Y-137187437D01*
X164908342Y-137187437D02*
X165003580Y-137282675D01*
X165003580Y-137282675D02*
X165051199Y-137377913D01*
X165051199Y-137377913D02*
X165098818Y-137568389D01*
X165098818Y-137568389D02*
X165098818Y-137711246D01*
X165098818Y-137711246D02*
X165051199Y-137901722D01*
X165051199Y-137901722D02*
X165003580Y-137996960D01*
X165003580Y-137996960D02*
X164908342Y-138092199D01*
X164908342Y-138092199D02*
X164765485Y-138139818D01*
X164765485Y-138139818D02*
X164670247Y-138139818D01*
X164670247Y-138139818D02*
X164527390Y-138092199D01*
X164527390Y-138092199D02*
X164479771Y-138044579D01*
X164479771Y-138044579D02*
X164479771Y-137711246D01*
X164479771Y-137711246D02*
X164670247Y-137711246D01*
X163289294Y-137758865D02*
X162527390Y-137758865D01*
X161289294Y-138139818D02*
X161289294Y-137139818D01*
X161289294Y-137139818D02*
X161051199Y-137139818D01*
X161051199Y-137139818D02*
X160908342Y-137187437D01*
X160908342Y-137187437D02*
X160813104Y-137282675D01*
X160813104Y-137282675D02*
X160765485Y-137377913D01*
X160765485Y-137377913D02*
X160717866Y-137568389D01*
X160717866Y-137568389D02*
X160717866Y-137711246D01*
X160717866Y-137711246D02*
X160765485Y-137901722D01*
X160765485Y-137901722D02*
X160813104Y-137996960D01*
X160813104Y-137996960D02*
X160908342Y-138092199D01*
X160908342Y-138092199D02*
X161051199Y-138139818D01*
X161051199Y-138139818D02*
X161289294Y-138139818D01*
X160289294Y-138139818D02*
X160289294Y-137473151D01*
X160289294Y-137139818D02*
X160336913Y-137187437D01*
X160336913Y-137187437D02*
X160289294Y-137235056D01*
X160289294Y-137235056D02*
X160241675Y-137187437D01*
X160241675Y-137187437D02*
X160289294Y-137139818D01*
X160289294Y-137139818D02*
X160289294Y-137235056D01*
X159860723Y-138092199D02*
X159765485Y-138139818D01*
X159765485Y-138139818D02*
X159575009Y-138139818D01*
X159575009Y-138139818D02*
X159479771Y-138092199D01*
X159479771Y-138092199D02*
X159432152Y-137996960D01*
X159432152Y-137996960D02*
X159432152Y-137949341D01*
X159432152Y-137949341D02*
X159479771Y-137854103D01*
X159479771Y-137854103D02*
X159575009Y-137806484D01*
X159575009Y-137806484D02*
X159717866Y-137806484D01*
X159717866Y-137806484D02*
X159813104Y-137758865D01*
X159813104Y-137758865D02*
X159860723Y-137663627D01*
X159860723Y-137663627D02*
X159860723Y-137616008D01*
X159860723Y-137616008D02*
X159813104Y-137520770D01*
X159813104Y-137520770D02*
X159717866Y-137473151D01*
X159717866Y-137473151D02*
X159575009Y-137473151D01*
X159575009Y-137473151D02*
X159479771Y-137520770D01*
X159003580Y-137473151D02*
X159003580Y-138473151D01*
X159003580Y-137520770D02*
X158908342Y-137473151D01*
X158908342Y-137473151D02*
X158717866Y-137473151D01*
X158717866Y-137473151D02*
X158622628Y-137520770D01*
X158622628Y-137520770D02*
X158575009Y-137568389D01*
X158575009Y-137568389D02*
X158527390Y-137663627D01*
X158527390Y-137663627D02*
X158527390Y-137949341D01*
X158527390Y-137949341D02*
X158575009Y-138044579D01*
X158575009Y-138044579D02*
X158622628Y-138092199D01*
X158622628Y-138092199D02*
X158717866Y-138139818D01*
X158717866Y-138139818D02*
X158908342Y-138139818D01*
X158908342Y-138139818D02*
X159003580Y-138092199D01*
X157955961Y-138139818D02*
X158051199Y-138092199D01*
X158051199Y-138092199D02*
X158098818Y-137996960D01*
X158098818Y-137996960D02*
X158098818Y-137139818D01*
X157146437Y-138139818D02*
X157146437Y-137616008D01*
X157146437Y-137616008D02*
X157194056Y-137520770D01*
X157194056Y-137520770D02*
X157289294Y-137473151D01*
X157289294Y-137473151D02*
X157479770Y-137473151D01*
X157479770Y-137473151D02*
X157575008Y-137520770D01*
X157146437Y-138092199D02*
X157241675Y-138139818D01*
X157241675Y-138139818D02*
X157479770Y-138139818D01*
X157479770Y-138139818D02*
X157575008Y-138092199D01*
X157575008Y-138092199D02*
X157622627Y-137996960D01*
X157622627Y-137996960D02*
X157622627Y-137901722D01*
X157622627Y-137901722D02*
X157575008Y-137806484D01*
X157575008Y-137806484D02*
X157479770Y-137758865D01*
X157479770Y-137758865D02*
X157241675Y-137758865D01*
X157241675Y-137758865D02*
X157146437Y-137711246D01*
X156765484Y-137473151D02*
X156527389Y-138139818D01*
X156289294Y-137473151D02*
X156527389Y-138139818D01*
X156527389Y-138139818D02*
X156622627Y-138377913D01*
X156622627Y-138377913D02*
X156670246Y-138425532D01*
X156670246Y-138425532D02*
X156765484Y-138473151D01*
X155194055Y-137854103D02*
X154717865Y-137854103D01*
X155289293Y-138139818D02*
X154955960Y-137139818D01*
X154955960Y-137139818D02*
X154622627Y-138139818D01*
X153860722Y-138139818D02*
X153860722Y-137139818D01*
X153860722Y-138092199D02*
X153955960Y-138139818D01*
X153955960Y-138139818D02*
X154146436Y-138139818D01*
X154146436Y-138139818D02*
X154241674Y-138092199D01*
X154241674Y-138092199D02*
X154289293Y-138044579D01*
X154289293Y-138044579D02*
X154336912Y-137949341D01*
X154336912Y-137949341D02*
X154336912Y-137663627D01*
X154336912Y-137663627D02*
X154289293Y-137568389D01*
X154289293Y-137568389D02*
X154241674Y-137520770D01*
X154241674Y-137520770D02*
X154146436Y-137473151D01*
X154146436Y-137473151D02*
X153955960Y-137473151D01*
X153955960Y-137473151D02*
X153860722Y-137520770D01*
X152955960Y-138139818D02*
X152955960Y-137616008D01*
X152955960Y-137616008D02*
X153003579Y-137520770D01*
X153003579Y-137520770D02*
X153098817Y-137473151D01*
X153098817Y-137473151D02*
X153289293Y-137473151D01*
X153289293Y-137473151D02*
X153384531Y-137520770D01*
X152955960Y-138092199D02*
X153051198Y-138139818D01*
X153051198Y-138139818D02*
X153289293Y-138139818D01*
X153289293Y-138139818D02*
X153384531Y-138092199D01*
X153384531Y-138092199D02*
X153432150Y-137996960D01*
X153432150Y-137996960D02*
X153432150Y-137901722D01*
X153432150Y-137901722D02*
X153384531Y-137806484D01*
X153384531Y-137806484D02*
X153289293Y-137758865D01*
X153289293Y-137758865D02*
X153051198Y-137758865D01*
X153051198Y-137758865D02*
X152955960Y-137711246D01*
X152479769Y-137473151D02*
X152479769Y-138473151D01*
X152479769Y-137520770D02*
X152384531Y-137473151D01*
X152384531Y-137473151D02*
X152194055Y-137473151D01*
X152194055Y-137473151D02*
X152098817Y-137520770D01*
X152098817Y-137520770D02*
X152051198Y-137568389D01*
X152051198Y-137568389D02*
X152003579Y-137663627D01*
X152003579Y-137663627D02*
X152003579Y-137949341D01*
X152003579Y-137949341D02*
X152051198Y-138044579D01*
X152051198Y-138044579D02*
X152098817Y-138092199D01*
X152098817Y-138092199D02*
X152194055Y-138139818D01*
X152194055Y-138139818D02*
X152384531Y-138139818D01*
X152384531Y-138139818D02*
X152479769Y-138092199D01*
X151717864Y-137473151D02*
X151336912Y-137473151D01*
X151575007Y-137139818D02*
X151575007Y-137996960D01*
X151575007Y-137996960D02*
X151527388Y-138092199D01*
X151527388Y-138092199D02*
X151432150Y-138139818D01*
X151432150Y-138139818D02*
X151336912Y-138139818D01*
X150622626Y-138092199D02*
X150717864Y-138139818D01*
X150717864Y-138139818D02*
X150908340Y-138139818D01*
X150908340Y-138139818D02*
X151003578Y-138092199D01*
X151003578Y-138092199D02*
X151051197Y-137996960D01*
X151051197Y-137996960D02*
X151051197Y-137616008D01*
X151051197Y-137616008D02*
X151003578Y-137520770D01*
X151003578Y-137520770D02*
X150908340Y-137473151D01*
X150908340Y-137473151D02*
X150717864Y-137473151D01*
X150717864Y-137473151D02*
X150622626Y-137520770D01*
X150622626Y-137520770D02*
X150575007Y-137616008D01*
X150575007Y-137616008D02*
X150575007Y-137711246D01*
X150575007Y-137711246D02*
X151051197Y-137806484D01*
X150146435Y-138139818D02*
X150146435Y-137473151D01*
X150146435Y-137663627D02*
X150098816Y-137568389D01*
X150098816Y-137568389D02*
X150051197Y-137520770D01*
X150051197Y-137520770D02*
X149955959Y-137473151D01*
X149955959Y-137473151D02*
X149860721Y-137473151D01*
X148432149Y-137616008D02*
X148289292Y-137663627D01*
X148289292Y-137663627D02*
X148241673Y-137711246D01*
X148241673Y-137711246D02*
X148194054Y-137806484D01*
X148194054Y-137806484D02*
X148194054Y-137949341D01*
X148194054Y-137949341D02*
X148241673Y-138044579D01*
X148241673Y-138044579D02*
X148289292Y-138092199D01*
X148289292Y-138092199D02*
X148384530Y-138139818D01*
X148384530Y-138139818D02*
X148765482Y-138139818D01*
X148765482Y-138139818D02*
X148765482Y-137139818D01*
X148765482Y-137139818D02*
X148432149Y-137139818D01*
X148432149Y-137139818D02*
X148336911Y-137187437D01*
X148336911Y-137187437D02*
X148289292Y-137235056D01*
X148289292Y-137235056D02*
X148241673Y-137330294D01*
X148241673Y-137330294D02*
X148241673Y-137425532D01*
X148241673Y-137425532D02*
X148289292Y-137520770D01*
X148289292Y-137520770D02*
X148336911Y-137568389D01*
X148336911Y-137568389D02*
X148432149Y-137616008D01*
X148432149Y-137616008D02*
X148765482Y-137616008D01*
X148003578Y-138235056D02*
X147241673Y-138235056D01*
X146479768Y-138139818D02*
X147051196Y-138139818D01*
X146765482Y-138139818D02*
X146765482Y-137139818D01*
X146765482Y-137139818D02*
X146860720Y-137282675D01*
X146860720Y-137282675D02*
X146955958Y-137377913D01*
X146955958Y-137377913D02*
X147051196Y-137425532D01*
X146051196Y-138044579D02*
X146003577Y-138092199D01*
X146003577Y-138092199D02*
X146051196Y-138139818D01*
X146051196Y-138139818D02*
X146098815Y-138092199D01*
X146098815Y-138092199D02*
X146051196Y-138044579D01*
X146051196Y-138044579D02*
X146051196Y-138139818D01*
X145384530Y-137139818D02*
X145289292Y-137139818D01*
X145289292Y-137139818D02*
X145194054Y-137187437D01*
X145194054Y-137187437D02*
X145146435Y-137235056D01*
X145146435Y-137235056D02*
X145098816Y-137330294D01*
X145098816Y-137330294D02*
X145051197Y-137520770D01*
X145051197Y-137520770D02*
X145051197Y-137758865D01*
X145051197Y-137758865D02*
X145098816Y-137949341D01*
X145098816Y-137949341D02*
X145146435Y-138044579D01*
X145146435Y-138044579D02*
X145194054Y-138092199D01*
X145194054Y-138092199D02*
X145289292Y-138139818D01*
X145289292Y-138139818D02*
X145384530Y-138139818D01*
X145384530Y-138139818D02*
X145479768Y-138092199D01*
X145479768Y-138092199D02*
X145527387Y-138044579D01*
X145527387Y-138044579D02*
X145575006Y-137949341D01*
X145575006Y-137949341D02*
X145622625Y-137758865D01*
X145622625Y-137758865D02*
X145622625Y-137520770D01*
X145622625Y-137520770D02*
X145575006Y-137330294D01*
X145575006Y-137330294D02*
X145527387Y-137235056D01*
X145527387Y-137235056D02*
X145479768Y-137187437D01*
X145479768Y-137187437D02*
X145384530Y-137139818D01*
X151134588Y-107042141D02*
X151182208Y-106994522D01*
X151182208Y-106994522D02*
X151229827Y-106851665D01*
X151229827Y-106851665D02*
X151229827Y-106756427D01*
X151229827Y-106756427D02*
X151182208Y-106613570D01*
X151182208Y-106613570D02*
X151086969Y-106518332D01*
X151086969Y-106518332D02*
X150991731Y-106470713D01*
X150991731Y-106470713D02*
X150801255Y-106423094D01*
X150801255Y-106423094D02*
X150658398Y-106423094D01*
X150658398Y-106423094D02*
X150467922Y-106470713D01*
X150467922Y-106470713D02*
X150372684Y-106518332D01*
X150372684Y-106518332D02*
X150277446Y-106613570D01*
X150277446Y-106613570D02*
X150229827Y-106756427D01*
X150229827Y-106756427D02*
X150229827Y-106851665D01*
X150229827Y-106851665D02*
X150277446Y-106994522D01*
X150277446Y-106994522D02*
X150325065Y-107042141D01*
X151229827Y-107994522D02*
X151229827Y-107423094D01*
X151229827Y-107708808D02*
X150229827Y-107708808D01*
X150229827Y-107708808D02*
X150372684Y-107613570D01*
X150372684Y-107613570D02*
X150467922Y-107518332D01*
X150467922Y-107518332D02*
X150515541Y-107423094D01*
X151229827Y-108470713D02*
X151229827Y-108661189D01*
X151229827Y-108661189D02*
X151182208Y-108756427D01*
X151182208Y-108756427D02*
X151134588Y-108804046D01*
X151134588Y-108804046D02*
X150991731Y-108899284D01*
X150991731Y-108899284D02*
X150801255Y-108946903D01*
X150801255Y-108946903D02*
X150420303Y-108946903D01*
X150420303Y-108946903D02*
X150325065Y-108899284D01*
X150325065Y-108899284D02*
X150277446Y-108851665D01*
X150277446Y-108851665D02*
X150229827Y-108756427D01*
X150229827Y-108756427D02*
X150229827Y-108565951D01*
X150229827Y-108565951D02*
X150277446Y-108470713D01*
X150277446Y-108470713D02*
X150325065Y-108423094D01*
X150325065Y-108423094D02*
X150420303Y-108375475D01*
X150420303Y-108375475D02*
X150658398Y-108375475D01*
X150658398Y-108375475D02*
X150753636Y-108423094D01*
X150753636Y-108423094D02*
X150801255Y-108470713D01*
X150801255Y-108470713D02*
X150848874Y-108565951D01*
X150848874Y-108565951D02*
X150848874Y-108756427D01*
X150848874Y-108756427D02*
X150801255Y-108851665D01*
X150801255Y-108851665D02*
X150753636Y-108899284D01*
X150753636Y-108899284D02*
X150658398Y-108946903D01*
X157417865Y-105244579D02*
X157465484Y-105292199D01*
X157465484Y-105292199D02*
X157608341Y-105339818D01*
X157608341Y-105339818D02*
X157703579Y-105339818D01*
X157703579Y-105339818D02*
X157846436Y-105292199D01*
X157846436Y-105292199D02*
X157941674Y-105196960D01*
X157941674Y-105196960D02*
X157989293Y-105101722D01*
X157989293Y-105101722D02*
X158036912Y-104911246D01*
X158036912Y-104911246D02*
X158036912Y-104768389D01*
X158036912Y-104768389D02*
X157989293Y-104577913D01*
X157989293Y-104577913D02*
X157941674Y-104482675D01*
X157941674Y-104482675D02*
X157846436Y-104387437D01*
X157846436Y-104387437D02*
X157703579Y-104339818D01*
X157703579Y-104339818D02*
X157608341Y-104339818D01*
X157608341Y-104339818D02*
X157465484Y-104387437D01*
X157465484Y-104387437D02*
X157417865Y-104435056D01*
X156465484Y-105339818D02*
X157036912Y-105339818D01*
X156751198Y-105339818D02*
X156751198Y-104339818D01*
X156751198Y-104339818D02*
X156846436Y-104482675D01*
X156846436Y-104482675D02*
X156941674Y-104577913D01*
X156941674Y-104577913D02*
X157036912Y-104625532D01*
X156132150Y-104339818D02*
X155513103Y-104339818D01*
X155513103Y-104339818D02*
X155846436Y-104720770D01*
X155846436Y-104720770D02*
X155703579Y-104720770D01*
X155703579Y-104720770D02*
X155608341Y-104768389D01*
X155608341Y-104768389D02*
X155560722Y-104816008D01*
X155560722Y-104816008D02*
X155513103Y-104911246D01*
X155513103Y-104911246D02*
X155513103Y-105149341D01*
X155513103Y-105149341D02*
X155560722Y-105244579D01*
X155560722Y-105244579D02*
X155608341Y-105292199D01*
X155608341Y-105292199D02*
X155703579Y-105339818D01*
X155703579Y-105339818D02*
X155989293Y-105339818D01*
X155989293Y-105339818D02*
X156084531Y-105292199D01*
X156084531Y-105292199D02*
X156132150Y-105244579D01*
X159134588Y-112442141D02*
X159182208Y-112394522D01*
X159182208Y-112394522D02*
X159229827Y-112251665D01*
X159229827Y-112251665D02*
X159229827Y-112156427D01*
X159229827Y-112156427D02*
X159182208Y-112013570D01*
X159182208Y-112013570D02*
X159086969Y-111918332D01*
X159086969Y-111918332D02*
X158991731Y-111870713D01*
X158991731Y-111870713D02*
X158801255Y-111823094D01*
X158801255Y-111823094D02*
X158658398Y-111823094D01*
X158658398Y-111823094D02*
X158467922Y-111870713D01*
X158467922Y-111870713D02*
X158372684Y-111918332D01*
X158372684Y-111918332D02*
X158277446Y-112013570D01*
X158277446Y-112013570D02*
X158229827Y-112156427D01*
X158229827Y-112156427D02*
X158229827Y-112251665D01*
X158229827Y-112251665D02*
X158277446Y-112394522D01*
X158277446Y-112394522D02*
X158325065Y-112442141D01*
X159229827Y-113394522D02*
X159229827Y-112823094D01*
X159229827Y-113108808D02*
X158229827Y-113108808D01*
X158229827Y-113108808D02*
X158372684Y-113013570D01*
X158372684Y-113013570D02*
X158467922Y-112918332D01*
X158467922Y-112918332D02*
X158515541Y-112823094D01*
X158563160Y-114251665D02*
X159229827Y-114251665D01*
X158182208Y-114013570D02*
X158896493Y-113775475D01*
X158896493Y-113775475D02*
X158896493Y-114394522D01*
X141534588Y-115718332D02*
X141582208Y-115670713D01*
X141582208Y-115670713D02*
X141629827Y-115527856D01*
X141629827Y-115527856D02*
X141629827Y-115432618D01*
X141629827Y-115432618D02*
X141582208Y-115289761D01*
X141582208Y-115289761D02*
X141486969Y-115194523D01*
X141486969Y-115194523D02*
X141391731Y-115146904D01*
X141391731Y-115146904D02*
X141201255Y-115099285D01*
X141201255Y-115099285D02*
X141058398Y-115099285D01*
X141058398Y-115099285D02*
X140867922Y-115146904D01*
X140867922Y-115146904D02*
X140772684Y-115194523D01*
X140772684Y-115194523D02*
X140677446Y-115289761D01*
X140677446Y-115289761D02*
X140629827Y-115432618D01*
X140629827Y-115432618D02*
X140629827Y-115527856D01*
X140629827Y-115527856D02*
X140677446Y-115670713D01*
X140677446Y-115670713D02*
X140725065Y-115718332D01*
X141058398Y-116289761D02*
X141010779Y-116194523D01*
X141010779Y-116194523D02*
X140963160Y-116146904D01*
X140963160Y-116146904D02*
X140867922Y-116099285D01*
X140867922Y-116099285D02*
X140820303Y-116099285D01*
X140820303Y-116099285D02*
X140725065Y-116146904D01*
X140725065Y-116146904D02*
X140677446Y-116194523D01*
X140677446Y-116194523D02*
X140629827Y-116289761D01*
X140629827Y-116289761D02*
X140629827Y-116480237D01*
X140629827Y-116480237D02*
X140677446Y-116575475D01*
X140677446Y-116575475D02*
X140725065Y-116623094D01*
X140725065Y-116623094D02*
X140820303Y-116670713D01*
X140820303Y-116670713D02*
X140867922Y-116670713D01*
X140867922Y-116670713D02*
X140963160Y-116623094D01*
X140963160Y-116623094D02*
X141010779Y-116575475D01*
X141010779Y-116575475D02*
X141058398Y-116480237D01*
X141058398Y-116480237D02*
X141058398Y-116289761D01*
X141058398Y-116289761D02*
X141106017Y-116194523D01*
X141106017Y-116194523D02*
X141153636Y-116146904D01*
X141153636Y-116146904D02*
X141248874Y-116099285D01*
X141248874Y-116099285D02*
X141439350Y-116099285D01*
X141439350Y-116099285D02*
X141534588Y-116146904D01*
X141534588Y-116146904D02*
X141582208Y-116194523D01*
X141582208Y-116194523D02*
X141629827Y-116289761D01*
X141629827Y-116289761D02*
X141629827Y-116480237D01*
X141629827Y-116480237D02*
X141582208Y-116575475D01*
X141582208Y-116575475D02*
X141534588Y-116623094D01*
X141534588Y-116623094D02*
X141439350Y-116670713D01*
X141439350Y-116670713D02*
X141248874Y-116670713D01*
X141248874Y-116670713D02*
X141153636Y-116623094D01*
X141153636Y-116623094D02*
X141106017Y-116575475D01*
X141106017Y-116575475D02*
X141058398Y-116480237D01*
X179629827Y-118118332D02*
X179153636Y-117784999D01*
X179629827Y-117546904D02*
X178629827Y-117546904D01*
X178629827Y-117546904D02*
X178629827Y-117927856D01*
X178629827Y-117927856D02*
X178677446Y-118023094D01*
X178677446Y-118023094D02*
X178725065Y-118070713D01*
X178725065Y-118070713D02*
X178820303Y-118118332D01*
X178820303Y-118118332D02*
X178963160Y-118118332D01*
X178963160Y-118118332D02*
X179058398Y-118070713D01*
X179058398Y-118070713D02*
X179106017Y-118023094D01*
X179106017Y-118023094D02*
X179153636Y-117927856D01*
X179153636Y-117927856D02*
X179153636Y-117546904D01*
X179629827Y-119070713D02*
X179629827Y-118499285D01*
X179629827Y-118784999D02*
X178629827Y-118784999D01*
X178629827Y-118784999D02*
X178772684Y-118689761D01*
X178772684Y-118689761D02*
X178867922Y-118594523D01*
X178867922Y-118594523D02*
X178915541Y-118499285D01*
X175908341Y-127139818D02*
X175908341Y-127854103D01*
X175908341Y-127854103D02*
X175955960Y-127996960D01*
X175955960Y-127996960D02*
X176051198Y-128092199D01*
X176051198Y-128092199D02*
X176194055Y-128139818D01*
X176194055Y-128139818D02*
X176289293Y-128139818D01*
X175479769Y-127235056D02*
X175432150Y-127187437D01*
X175432150Y-127187437D02*
X175336912Y-127139818D01*
X175336912Y-127139818D02*
X175098817Y-127139818D01*
X175098817Y-127139818D02*
X175003579Y-127187437D01*
X175003579Y-127187437D02*
X174955960Y-127235056D01*
X174955960Y-127235056D02*
X174908341Y-127330294D01*
X174908341Y-127330294D02*
X174908341Y-127425532D01*
X174908341Y-127425532D02*
X174955960Y-127568389D01*
X174955960Y-127568389D02*
X175527388Y-128139818D01*
X175527388Y-128139818D02*
X174908341Y-128139818D01*
X145134588Y-109242141D02*
X145182208Y-109194522D01*
X145182208Y-109194522D02*
X145229827Y-109051665D01*
X145229827Y-109051665D02*
X145229827Y-108956427D01*
X145229827Y-108956427D02*
X145182208Y-108813570D01*
X145182208Y-108813570D02*
X145086969Y-108718332D01*
X145086969Y-108718332D02*
X144991731Y-108670713D01*
X144991731Y-108670713D02*
X144801255Y-108623094D01*
X144801255Y-108623094D02*
X144658398Y-108623094D01*
X144658398Y-108623094D02*
X144467922Y-108670713D01*
X144467922Y-108670713D02*
X144372684Y-108718332D01*
X144372684Y-108718332D02*
X144277446Y-108813570D01*
X144277446Y-108813570D02*
X144229827Y-108956427D01*
X144229827Y-108956427D02*
X144229827Y-109051665D01*
X144229827Y-109051665D02*
X144277446Y-109194522D01*
X144277446Y-109194522D02*
X144325065Y-109242141D01*
X145229827Y-110194522D02*
X145229827Y-109623094D01*
X145229827Y-109908808D02*
X144229827Y-109908808D01*
X144229827Y-109908808D02*
X144372684Y-109813570D01*
X144372684Y-109813570D02*
X144467922Y-109718332D01*
X144467922Y-109718332D02*
X144515541Y-109623094D01*
X144229827Y-110813570D02*
X144229827Y-110908808D01*
X144229827Y-110908808D02*
X144277446Y-111004046D01*
X144277446Y-111004046D02*
X144325065Y-111051665D01*
X144325065Y-111051665D02*
X144420303Y-111099284D01*
X144420303Y-111099284D02*
X144610779Y-111146903D01*
X144610779Y-111146903D02*
X144848874Y-111146903D01*
X144848874Y-111146903D02*
X145039350Y-111099284D01*
X145039350Y-111099284D02*
X145134588Y-111051665D01*
X145134588Y-111051665D02*
X145182208Y-111004046D01*
X145182208Y-111004046D02*
X145229827Y-110908808D01*
X145229827Y-110908808D02*
X145229827Y-110813570D01*
X145229827Y-110813570D02*
X145182208Y-110718332D01*
X145182208Y-110718332D02*
X145134588Y-110670713D01*
X145134588Y-110670713D02*
X145039350Y-110623094D01*
X145039350Y-110623094D02*
X144848874Y-110575475D01*
X144848874Y-110575475D02*
X144610779Y-110575475D01*
X144610779Y-110575475D02*
X144420303Y-110623094D01*
X144420303Y-110623094D02*
X144325065Y-110670713D01*
X144325065Y-110670713D02*
X144277446Y-110718332D01*
X144277446Y-110718332D02*
X144229827Y-110813570D01*
X143734588Y-115718332D02*
X143782208Y-115670713D01*
X143782208Y-115670713D02*
X143829827Y-115527856D01*
X143829827Y-115527856D02*
X143829827Y-115432618D01*
X143829827Y-115432618D02*
X143782208Y-115289761D01*
X143782208Y-115289761D02*
X143686969Y-115194523D01*
X143686969Y-115194523D02*
X143591731Y-115146904D01*
X143591731Y-115146904D02*
X143401255Y-115099285D01*
X143401255Y-115099285D02*
X143258398Y-115099285D01*
X143258398Y-115099285D02*
X143067922Y-115146904D01*
X143067922Y-115146904D02*
X142972684Y-115194523D01*
X142972684Y-115194523D02*
X142877446Y-115289761D01*
X142877446Y-115289761D02*
X142829827Y-115432618D01*
X142829827Y-115432618D02*
X142829827Y-115527856D01*
X142829827Y-115527856D02*
X142877446Y-115670713D01*
X142877446Y-115670713D02*
X142925065Y-115718332D01*
X143829827Y-116194523D02*
X143829827Y-116384999D01*
X143829827Y-116384999D02*
X143782208Y-116480237D01*
X143782208Y-116480237D02*
X143734588Y-116527856D01*
X143734588Y-116527856D02*
X143591731Y-116623094D01*
X143591731Y-116623094D02*
X143401255Y-116670713D01*
X143401255Y-116670713D02*
X143020303Y-116670713D01*
X143020303Y-116670713D02*
X142925065Y-116623094D01*
X142925065Y-116623094D02*
X142877446Y-116575475D01*
X142877446Y-116575475D02*
X142829827Y-116480237D01*
X142829827Y-116480237D02*
X142829827Y-116289761D01*
X142829827Y-116289761D02*
X142877446Y-116194523D01*
X142877446Y-116194523D02*
X142925065Y-116146904D01*
X142925065Y-116146904D02*
X143020303Y-116099285D01*
X143020303Y-116099285D02*
X143258398Y-116099285D01*
X143258398Y-116099285D02*
X143353636Y-116146904D01*
X143353636Y-116146904D02*
X143401255Y-116194523D01*
X143401255Y-116194523D02*
X143448874Y-116289761D01*
X143448874Y-116289761D02*
X143448874Y-116480237D01*
X143448874Y-116480237D02*
X143401255Y-116575475D01*
X143401255Y-116575475D02*
X143353636Y-116623094D01*
X143353636Y-116623094D02*
X143258398Y-116670713D01*
X151334588Y-112442141D02*
X151382208Y-112394522D01*
X151382208Y-112394522D02*
X151429827Y-112251665D01*
X151429827Y-112251665D02*
X151429827Y-112156427D01*
X151429827Y-112156427D02*
X151382208Y-112013570D01*
X151382208Y-112013570D02*
X151286969Y-111918332D01*
X151286969Y-111918332D02*
X151191731Y-111870713D01*
X151191731Y-111870713D02*
X151001255Y-111823094D01*
X151001255Y-111823094D02*
X150858398Y-111823094D01*
X150858398Y-111823094D02*
X150667922Y-111870713D01*
X150667922Y-111870713D02*
X150572684Y-111918332D01*
X150572684Y-111918332D02*
X150477446Y-112013570D01*
X150477446Y-112013570D02*
X150429827Y-112156427D01*
X150429827Y-112156427D02*
X150429827Y-112251665D01*
X150429827Y-112251665D02*
X150477446Y-112394522D01*
X150477446Y-112394522D02*
X150525065Y-112442141D01*
X151429827Y-113394522D02*
X151429827Y-112823094D01*
X151429827Y-113108808D02*
X150429827Y-113108808D01*
X150429827Y-113108808D02*
X150572684Y-113013570D01*
X150572684Y-113013570D02*
X150667922Y-112918332D01*
X150667922Y-112918332D02*
X150715541Y-112823094D01*
X150525065Y-113775475D02*
X150477446Y-113823094D01*
X150477446Y-113823094D02*
X150429827Y-113918332D01*
X150429827Y-113918332D02*
X150429827Y-114156427D01*
X150429827Y-114156427D02*
X150477446Y-114251665D01*
X150477446Y-114251665D02*
X150525065Y-114299284D01*
X150525065Y-114299284D02*
X150620303Y-114346903D01*
X150620303Y-114346903D02*
X150715541Y-114346903D01*
X150715541Y-114346903D02*
X150858398Y-114299284D01*
X150858398Y-114299284D02*
X151429827Y-113727856D01*
X151429827Y-113727856D02*
X151429827Y-114346903D01*
X177629827Y-118118332D02*
X177153636Y-117784999D01*
X177629827Y-117546904D02*
X176629827Y-117546904D01*
X176629827Y-117546904D02*
X176629827Y-117927856D01*
X176629827Y-117927856D02*
X176677446Y-118023094D01*
X176677446Y-118023094D02*
X176725065Y-118070713D01*
X176725065Y-118070713D02*
X176820303Y-118118332D01*
X176820303Y-118118332D02*
X176963160Y-118118332D01*
X176963160Y-118118332D02*
X177058398Y-118070713D01*
X177058398Y-118070713D02*
X177106017Y-118023094D01*
X177106017Y-118023094D02*
X177153636Y-117927856D01*
X177153636Y-117927856D02*
X177153636Y-117546904D01*
X176725065Y-118499285D02*
X176677446Y-118546904D01*
X176677446Y-118546904D02*
X176629827Y-118642142D01*
X176629827Y-118642142D02*
X176629827Y-118880237D01*
X176629827Y-118880237D02*
X176677446Y-118975475D01*
X176677446Y-118975475D02*
X176725065Y-119023094D01*
X176725065Y-119023094D02*
X176820303Y-119070713D01*
X176820303Y-119070713D02*
X176915541Y-119070713D01*
X176915541Y-119070713D02*
X177058398Y-119023094D01*
X177058398Y-119023094D02*
X177629827Y-118451666D01*
X177629827Y-118451666D02*
X177629827Y-119070713D01*
X147534588Y-115642141D02*
X147582208Y-115594522D01*
X147582208Y-115594522D02*
X147629827Y-115451665D01*
X147629827Y-115451665D02*
X147629827Y-115356427D01*
X147629827Y-115356427D02*
X147582208Y-115213570D01*
X147582208Y-115213570D02*
X147486969Y-115118332D01*
X147486969Y-115118332D02*
X147391731Y-115070713D01*
X147391731Y-115070713D02*
X147201255Y-115023094D01*
X147201255Y-115023094D02*
X147058398Y-115023094D01*
X147058398Y-115023094D02*
X146867922Y-115070713D01*
X146867922Y-115070713D02*
X146772684Y-115118332D01*
X146772684Y-115118332D02*
X146677446Y-115213570D01*
X146677446Y-115213570D02*
X146629827Y-115356427D01*
X146629827Y-115356427D02*
X146629827Y-115451665D01*
X146629827Y-115451665D02*
X146677446Y-115594522D01*
X146677446Y-115594522D02*
X146725065Y-115642141D01*
X147629827Y-116594522D02*
X147629827Y-116023094D01*
X147629827Y-116308808D02*
X146629827Y-116308808D01*
X146629827Y-116308808D02*
X146772684Y-116213570D01*
X146772684Y-116213570D02*
X146867922Y-116118332D01*
X146867922Y-116118332D02*
X146915541Y-116023094D01*
X147629827Y-117546903D02*
X147629827Y-116975475D01*
X147629827Y-117261189D02*
X146629827Y-117261189D01*
X146629827Y-117261189D02*
X146772684Y-117165951D01*
X146772684Y-117165951D02*
X146867922Y-117070713D01*
X146867922Y-117070713D02*
X146915541Y-116975475D01*
X159814588Y-107318332D02*
X159862208Y-107270713D01*
X159862208Y-107270713D02*
X159909827Y-107127856D01*
X159909827Y-107127856D02*
X159909827Y-107032618D01*
X159909827Y-107032618D02*
X159862208Y-106889761D01*
X159862208Y-106889761D02*
X159766969Y-106794523D01*
X159766969Y-106794523D02*
X159671731Y-106746904D01*
X159671731Y-106746904D02*
X159481255Y-106699285D01*
X159481255Y-106699285D02*
X159338398Y-106699285D01*
X159338398Y-106699285D02*
X159147922Y-106746904D01*
X159147922Y-106746904D02*
X159052684Y-106794523D01*
X159052684Y-106794523D02*
X158957446Y-106889761D01*
X158957446Y-106889761D02*
X158909827Y-107032618D01*
X158909827Y-107032618D02*
X158909827Y-107127856D01*
X158909827Y-107127856D02*
X158957446Y-107270713D01*
X158957446Y-107270713D02*
X159005065Y-107318332D01*
X158909827Y-107651666D02*
X158909827Y-108318332D01*
X158909827Y-108318332D02*
X159909827Y-107889761D01*
X152854588Y-112442141D02*
X152902208Y-112394522D01*
X152902208Y-112394522D02*
X152949827Y-112251665D01*
X152949827Y-112251665D02*
X152949827Y-112156427D01*
X152949827Y-112156427D02*
X152902208Y-112013570D01*
X152902208Y-112013570D02*
X152806969Y-111918332D01*
X152806969Y-111918332D02*
X152711731Y-111870713D01*
X152711731Y-111870713D02*
X152521255Y-111823094D01*
X152521255Y-111823094D02*
X152378398Y-111823094D01*
X152378398Y-111823094D02*
X152187922Y-111870713D01*
X152187922Y-111870713D02*
X152092684Y-111918332D01*
X152092684Y-111918332D02*
X151997446Y-112013570D01*
X151997446Y-112013570D02*
X151949827Y-112156427D01*
X151949827Y-112156427D02*
X151949827Y-112251665D01*
X151949827Y-112251665D02*
X151997446Y-112394522D01*
X151997446Y-112394522D02*
X152045065Y-112442141D01*
X152949827Y-113394522D02*
X152949827Y-112823094D01*
X152949827Y-113108808D02*
X151949827Y-113108808D01*
X151949827Y-113108808D02*
X152092684Y-113013570D01*
X152092684Y-113013570D02*
X152187922Y-112918332D01*
X152187922Y-112918332D02*
X152235541Y-112823094D01*
X151949827Y-114299284D02*
X151949827Y-113823094D01*
X151949827Y-113823094D02*
X152426017Y-113775475D01*
X152426017Y-113775475D02*
X152378398Y-113823094D01*
X152378398Y-113823094D02*
X152330779Y-113918332D01*
X152330779Y-113918332D02*
X152330779Y-114156427D01*
X152330779Y-114156427D02*
X152378398Y-114251665D01*
X152378398Y-114251665D02*
X152426017Y-114299284D01*
X152426017Y-114299284D02*
X152521255Y-114346903D01*
X152521255Y-114346903D02*
X152759350Y-114346903D01*
X152759350Y-114346903D02*
X152854588Y-114299284D01*
X152854588Y-114299284D02*
X152902208Y-114251665D01*
X152902208Y-114251665D02*
X152949827Y-114156427D01*
X152949827Y-114156427D02*
X152949827Y-113918332D01*
X152949827Y-113918332D02*
X152902208Y-113823094D01*
X152902208Y-113823094D02*
X152854588Y-113775475D01*
X180029827Y-107151665D02*
X180744112Y-107151665D01*
X180744112Y-107151665D02*
X180886969Y-107104046D01*
X180886969Y-107104046D02*
X180982208Y-107008808D01*
X180982208Y-107008808D02*
X181029827Y-106865951D01*
X181029827Y-106865951D02*
X181029827Y-106770713D01*
X181029827Y-108151665D02*
X181029827Y-107580237D01*
X181029827Y-107865951D02*
X180029827Y-107865951D01*
X180029827Y-107865951D02*
X180172684Y-107770713D01*
X180172684Y-107770713D02*
X180267922Y-107675475D01*
X180267922Y-107675475D02*
X180315541Y-107580237D01*
D11*
%TO.C,C19*%
X152040008Y-108946251D02*
X152040008Y-108423747D01*
X153510008Y-108946251D02*
X153510008Y-108423747D01*
%TO.C,C13*%
X153636260Y-104149999D02*
X153113756Y-104149999D01*
X153636260Y-105619999D02*
X153113756Y-105619999D01*
%TO.C,C14*%
X156240008Y-113346251D02*
X156240008Y-112823747D01*
X157710008Y-113346251D02*
X157710008Y-112823747D01*
%TO.C,C8*%
X140400008Y-112823747D02*
X140400008Y-113346251D01*
X141870008Y-112823747D02*
X141870008Y-113346251D01*
%TO.C,R1*%
X178440008Y-121112063D02*
X178440008Y-120657935D01*
X179910008Y-121112063D02*
X179910008Y-120657935D01*
%TO.C,J2*%
X179935008Y-132124999D02*
X179935008Y-134124999D01*
X177435008Y-132124999D02*
X179935008Y-132124999D01*
X177435008Y-128884999D02*
X177435008Y-132124999D01*
X173715008Y-132124999D02*
X171215008Y-132124999D01*
X171325008Y-138244999D02*
X179825008Y-138244999D01*
X171215008Y-132124999D02*
X171215008Y-134124999D01*
%TO.C,C10*%
X144440008Y-113346251D02*
X144440008Y-112823747D01*
X145910008Y-113346251D02*
X145910008Y-112823747D01*
%TO.C,C9*%
X142440008Y-113346251D02*
X142440008Y-112823747D01*
X143910008Y-113346251D02*
X143910008Y-112823747D01*
%TO.C,C12*%
X148440008Y-113346251D02*
X148440008Y-112823747D01*
X149910008Y-113346251D02*
X149910008Y-112823747D01*
%TO.C,R2*%
X176440008Y-121112063D02*
X176440008Y-120657935D01*
X177910008Y-121112063D02*
X177910008Y-120657935D01*
%TO.C,C11*%
X146440008Y-113346251D02*
X146440008Y-112823747D01*
X147910008Y-113346251D02*
X147910008Y-112823747D01*
%TO.C,C7*%
X157040008Y-107223747D02*
X157040008Y-107746251D01*
X158510008Y-107223747D02*
X158510008Y-107746251D01*
%TO.C,C15*%
X153440008Y-113346251D02*
X153440008Y-112823747D01*
X154910008Y-113346251D02*
X154910008Y-112823747D01*
%TO.C,J1*%
X175640008Y-106574999D02*
X177640008Y-106574999D01*
X175640008Y-106634999D02*
X177640008Y-106634999D01*
X175640008Y-106754999D02*
X177640008Y-106754999D01*
X175640008Y-106874999D02*
X177640008Y-106874999D01*
X175640008Y-106994999D02*
X175640008Y-106574999D01*
X175640008Y-107574999D02*
X177640008Y-107574999D01*
X175640008Y-107994999D02*
X175640008Y-107574999D01*
X177640008Y-106224999D02*
X178265008Y-106224999D01*
X177640008Y-106994999D02*
X175640008Y-106994999D01*
X177640008Y-107284999D02*
X178265008Y-107284999D01*
X177640008Y-107994999D02*
X175640008Y-107994999D01*
X177640008Y-108344999D02*
X177640008Y-106224999D01*
X178555515Y-108344999D02*
X177640008Y-108344999D01*
X178950008Y-106099999D02*
X179635008Y-106099999D01*
X179635008Y-106099999D02*
X179635008Y-106784999D01*
%TD*%
M02*
