M48
; DRILL file {KiCad 8.0.9-8.0.9-0~ubuntu22.04.1} date 2025-08-19T21:28:41+0200
; FORMAT={-:-/ absolute / inch / decimal}
; #@! TF.CreationDate,2025-08-19T21:28:41+02:00
; #@! TF.GenerationSoftware,Kicad,Pcbnew,8.0.9-8.0.9-0~ubuntu22.04.1
; #@! TF.FileFunction,Plated,1,4,PTH
FMAT,2
INCH
; #@! TA.AperFunction,Plated,PTH,ViaDrill
T1C0.0118
; #@! TA.AperFunction,Plated,PTH,ComponentDrill
T2C0.0197
%
G90
G05
T1
X5.125Y-4.8537
X5.2431Y-5.4266
X5.2982Y-5.2081
X5.3012Y-5.2425
X5.3061Y-5.1608
X5.3578Y-5.0191
X5.3578Y-5.0978
X5.3691Y-4.9167
X5.3893Y-4.4443
X5.3893Y-4.523
X5.5266Y-5.2691
X5.5896Y-5.1116
X5.5896Y-5.4266
X5.6097Y-4.9955
X5.6368Y-5.2455
X5.6585Y-5.2219
X5.7121Y-4.9876
X5.7357Y-4.5545
X5.7392Y-4.2868
X5.7549Y-4.9876
X5.7943Y-5.1844
X5.81Y-4.9955
X5.8337Y-5.1057
X5.8415Y-4.2868
X5.8494Y-4.1687
X5.8573Y-4.5388
X5.8888Y-4.2868
X5.8888Y-4.5388
X5.9203Y-4.1451
X5.936Y-4.3104
X5.9596Y-4.1766
X5.9675Y-5.0978
X5.9764Y-4.2789
X5.999Y-4.1776
X6.0148Y-4.3577
X6.0305Y-4.1766
X6.0512Y-4.2789
X6.0778Y-4.1776
X6.0856Y-4.9955
X6.0935Y-4.3104
X6.1093Y-5.1136
X6.1171Y-4.1766
X6.1407Y-4.2868
X6.1486Y-5.1136
X6.1545Y-4.1766
X6.3061Y-5.1057
X6.3612Y-5.1057
X6.4203Y-5.1096
X6.4478Y-5.1844
X6.4636Y-4.2868
X6.5581Y-4.4994
X6.6087Y-5.0315
X6.6132Y-4.3734
X6.6604Y-4.6569
X6.6762Y-5.0427
X6.7313Y-4.3537
X6.7313Y-4.401
X6.7313Y-4.4482
X6.81Y-5.0348
X6.9124Y-4.8774
X6.9124Y-5.2711
X6.9518Y-4.4404
X6.9587Y-5.0339
X7.0069Y-4.3144
X7.0069Y-4.4876
X7.0069Y-4.8774
X7.062Y-5.0348
T2
X7.0453Y-4.2041
X7.0453Y-4.2435
M30
