%TF.GenerationSoftware,KiCad,Pcbnew,8.0.9-8.0.9-0~ubuntu22.04.1*%
%TF.CreationDate,2025-08-19T21:28:46+02:00*%
%TF.ProjectId,KG_Disp_Adapter,4b475f44-6973-4705-9f41-646170746572,rev?*%
%TF.SameCoordinates,Original*%
%TF.FileFunction,Copper,L2,Inr*%
%TF.FilePolarity,Positive*%
%FSLAX46Y46*%
G04 Gerber Fmt 4.6, Leading zero omitted, Abs format (unit mm)*
G04 Created by KiCad (PCBNEW 8.0.9-8.0.9-0~ubuntu22.04.1) date 2025-08-19 21:28:46*
%MOMM*%
%LPD*%
G01*
G04 APERTURE LIST*
%TA.AperFunction,ComponentPad*%
%ADD10R,0.850000X0.850000*%
%TD*%
%TA.AperFunction,ComponentPad*%
%ADD11O,0.850000X0.850000*%
%TD*%
%TA.AperFunction,ViaPad*%
%ADD12C,0.600000*%
%TD*%
G04 APERTURE END LIST*
D10*
%TO.N,Net-(J1-Pin_1)*%
%TO.C,J1*%
X178950008Y-106784999D03*
D11*
%TO.N,Net-(J1-Pin_2)*%
X178950008Y-107784999D03*
%TD*%
D12*
%TO.N,+3V3*%
X167860008Y-127799999D03*
X134650008Y-133159999D03*
X152375008Y-106109999D03*
X148775008Y-115284999D03*
X148375008Y-108884999D03*
X149575008Y-115284999D03*
X136887508Y-114884999D03*
X166575008Y-114284999D03*
X134575008Y-132284999D03*
%TO.N,GND*%
X140375008Y-133834999D03*
X148575008Y-105884999D03*
X161575008Y-129684999D03*
X177975008Y-123884999D03*
X163775008Y-131684999D03*
X170975008Y-112984999D03*
X141975008Y-129834999D03*
X154575008Y-126884999D03*
X156325008Y-106084999D03*
X167975008Y-111084999D03*
X130175008Y-123284999D03*
X133175008Y-137834999D03*
X145775008Y-108884999D03*
X145087508Y-126684999D03*
X136087508Y-129484999D03*
X134775008Y-131084999D03*
X145687508Y-115684999D03*
X151575008Y-129484999D03*
X136887508Y-112884999D03*
X147575008Y-126884999D03*
X176750008Y-127859999D03*
X152775008Y-110684999D03*
X175575008Y-123884999D03*
X146175008Y-126684999D03*
X164175008Y-108884999D03*
X175575008Y-133884999D03*
X179375008Y-127884999D03*
X177975008Y-113984999D03*
X147175008Y-131684999D03*
X169175008Y-118284999D03*
X141975008Y-137834999D03*
%TO.N,+5V*%
X160175008Y-129684999D03*
X156175008Y-129884999D03*
X136087508Y-127484999D03*
X155175008Y-129884999D03*
X148175008Y-129684999D03*
X177975008Y-109584999D03*
X163075008Y-129784999D03*
X143175008Y-133234999D03*
X136375008Y-124884999D03*
X143725008Y-132634999D03*
%TO.N,Net-(J4-Pin_15)*%
X155975008Y-108884999D03*
%TO.N,Net-(J4-Pin_27)*%
X149575008Y-108884999D03*
%TO.N,Net-(J4-Pin_26)*%
X150375008Y-105284999D03*
%TO.N,Net-(J4-Pin_25)*%
X150775008Y-109484999D03*
%TO.N,Net-(J4-Pin_24)*%
X151375008Y-106084999D03*
%TO.N,Net-(J4-Pin_23)*%
X151800008Y-108684999D03*
%TO.N,Net-(J4-Pin_20)*%
X153175008Y-106084999D03*
%TO.N,Net-(J4-Pin_19)*%
X153700008Y-108684999D03*
%TO.N,Net-(J4-Pin_17)*%
X154775008Y-109484999D03*
%TO.N,Net-(J4-Pin_16)*%
X155375008Y-106084999D03*
%TO.N,Net-(J4-Pin_18)*%
X154375008Y-106109999D03*
%TO.N,/PCB_CS*%
X170975008Y-110584999D03*
X169575008Y-128084999D03*
%TO.N,/PCB_RD*%
X172975008Y-127884999D03*
X170975008Y-111784999D03*
%TO.N,Net-(U2-DIR)*%
X142487508Y-126884999D03*
X176575008Y-112784999D03*
%TD*%
%TA.AperFunction,Conductor*%
%TO.N,GND*%
G36*
X181417547Y-103905184D02*
G01*
X181463302Y-103957988D01*
X181474508Y-104009499D01*
X181474508Y-138560499D01*
X181454823Y-138627538D01*
X181402019Y-138673293D01*
X181350508Y-138684499D01*
X129799508Y-138684499D01*
X129732469Y-138664814D01*
X129686714Y-138612010D01*
X129675508Y-138560499D01*
X129675508Y-132284995D01*
X133761392Y-132284995D01*
X133761392Y-132285002D01*
X133781789Y-132466040D01*
X133781790Y-132466045D01*
X133841966Y-132638017D01*
X133896343Y-132724556D01*
X133915344Y-132791793D01*
X133908392Y-132831483D01*
X133856791Y-132978949D01*
X133856789Y-132978957D01*
X133836392Y-133159995D01*
X133836392Y-133160002D01*
X133856789Y-133341040D01*
X133856790Y-133341045D01*
X133897957Y-133458692D01*
X133916965Y-133513014D01*
X134013897Y-133667280D01*
X134142727Y-133796110D01*
X134296993Y-133893042D01*
X134468961Y-133953216D01*
X134468966Y-133953217D01*
X134650004Y-133973615D01*
X134650008Y-133973615D01*
X134650012Y-133973615D01*
X134831049Y-133953217D01*
X134831052Y-133953216D01*
X134831055Y-133953216D01*
X135003023Y-133893042D01*
X135157289Y-133796110D01*
X135286119Y-133667280D01*
X135383051Y-133513014D01*
X135443225Y-133341046D01*
X135451105Y-133271109D01*
X135455174Y-133234995D01*
X142361392Y-133234995D01*
X142361392Y-133235002D01*
X142381789Y-133416040D01*
X142381790Y-133416045D01*
X142397692Y-133461489D01*
X142441965Y-133588014D01*
X142538897Y-133742280D01*
X142667727Y-133871110D01*
X142821993Y-133968042D01*
X142993961Y-134028216D01*
X142993966Y-134028217D01*
X143175004Y-134048615D01*
X143175008Y-134048615D01*
X143175012Y-134048615D01*
X143356049Y-134028217D01*
X143356052Y-134028216D01*
X143356055Y-134028216D01*
X143528023Y-133968042D01*
X143682289Y-133871110D01*
X143811119Y-133742280D01*
X143908051Y-133588014D01*
X143952324Y-133461486D01*
X143993044Y-133404713D01*
X144028410Y-133385401D01*
X144078023Y-133368042D01*
X144232289Y-133271110D01*
X144361119Y-133142280D01*
X144458051Y-132988014D01*
X144518225Y-132816046D01*
X144519246Y-132806984D01*
X144538624Y-132635002D01*
X144538624Y-132634995D01*
X144518226Y-132453957D01*
X144518225Y-132453952D01*
X144502324Y-132408509D01*
X144458051Y-132281984D01*
X144361119Y-132127718D01*
X144232289Y-131998888D01*
X144125812Y-131931984D01*
X144078025Y-131901957D01*
X144078024Y-131901956D01*
X144078023Y-131901956D01*
X144023701Y-131882948D01*
X143906054Y-131841781D01*
X143906049Y-131841780D01*
X143725012Y-131821383D01*
X143725004Y-131821383D01*
X143543966Y-131841780D01*
X143543961Y-131841781D01*
X143371990Y-131901957D01*
X143217726Y-131998888D01*
X143088897Y-132127717D01*
X142991964Y-132281983D01*
X142991963Y-132281987D01*
X142947691Y-132408509D01*
X142906970Y-132465285D01*
X142871606Y-132484595D01*
X142821992Y-132501956D01*
X142821990Y-132501957D01*
X142667726Y-132598888D01*
X142538897Y-132727717D01*
X142441966Y-132881981D01*
X142381790Y-133053952D01*
X142381789Y-133053957D01*
X142361392Y-133234995D01*
X135455174Y-133234995D01*
X135463624Y-133160002D01*
X135463624Y-133159995D01*
X135443226Y-132978957D01*
X135443225Y-132978952D01*
X135443224Y-132978949D01*
X135383051Y-132806984D01*
X135328671Y-132720439D01*
X135309671Y-132653203D01*
X135316623Y-132613516D01*
X135355660Y-132501956D01*
X135368224Y-132466050D01*
X135368226Y-132466040D01*
X135388624Y-132285002D01*
X135388624Y-132284995D01*
X135368226Y-132103957D01*
X135368225Y-132103952D01*
X135308051Y-131931984D01*
X135211119Y-131777718D01*
X135082289Y-131648888D01*
X134928023Y-131551956D01*
X134873701Y-131532948D01*
X134756054Y-131491781D01*
X134756049Y-131491780D01*
X134575012Y-131471383D01*
X134575004Y-131471383D01*
X134393966Y-131491780D01*
X134393961Y-131491781D01*
X134221990Y-131551957D01*
X134067726Y-131648888D01*
X133938897Y-131777717D01*
X133841966Y-131931981D01*
X133781790Y-132103952D01*
X133781789Y-132103957D01*
X133761392Y-132284995D01*
X129675508Y-132284995D01*
X129675508Y-129684995D01*
X147361392Y-129684995D01*
X147361392Y-129685002D01*
X147381789Y-129866040D01*
X147381790Y-129866045D01*
X147441966Y-130038016D01*
X147538897Y-130192280D01*
X147667727Y-130321110D01*
X147821993Y-130418042D01*
X147993961Y-130478216D01*
X147993966Y-130478217D01*
X148175004Y-130498615D01*
X148175008Y-130498615D01*
X148175012Y-130498615D01*
X148356049Y-130478217D01*
X148356052Y-130478216D01*
X148356055Y-130478216D01*
X148528023Y-130418042D01*
X148682289Y-130321110D01*
X148811119Y-130192280D01*
X148908051Y-130038014D01*
X148961594Y-129884995D01*
X154361392Y-129884995D01*
X154361392Y-129885002D01*
X154381789Y-130066040D01*
X154381790Y-130066045D01*
X154406974Y-130138016D01*
X154441965Y-130238014D01*
X154538897Y-130392280D01*
X154667727Y-130521110D01*
X154821993Y-130618042D01*
X154993958Y-130678215D01*
X154993961Y-130678216D01*
X154993966Y-130678217D01*
X155175004Y-130698615D01*
X155175008Y-130698615D01*
X155175012Y-130698615D01*
X155356049Y-130678217D01*
X155356051Y-130678216D01*
X155356055Y-130678216D01*
X155528023Y-130618042D01*
X155609038Y-130567136D01*
X155676271Y-130548136D01*
X155740977Y-130567136D01*
X155791076Y-130598615D01*
X155821995Y-130618043D01*
X155993958Y-130678215D01*
X155993961Y-130678216D01*
X155993962Y-130678216D01*
X155993966Y-130678217D01*
X156175004Y-130698615D01*
X156175008Y-130698615D01*
X156175012Y-130698615D01*
X156356049Y-130678217D01*
X156356052Y-130678216D01*
X156356055Y-130678216D01*
X156528023Y-130618042D01*
X156682289Y-130521110D01*
X156811119Y-130392280D01*
X156908051Y-130238014D01*
X156968225Y-130066046D01*
X156968226Y-130066040D01*
X156988624Y-129885002D01*
X156988624Y-129884995D01*
X156968226Y-129703957D01*
X156968225Y-129703952D01*
X156961592Y-129684995D01*
X159361392Y-129684995D01*
X159361392Y-129685002D01*
X159381789Y-129866040D01*
X159381790Y-129866045D01*
X159441966Y-130038016D01*
X159538897Y-130192280D01*
X159667727Y-130321110D01*
X159821993Y-130418042D01*
X159993961Y-130478216D01*
X159993966Y-130478217D01*
X160175004Y-130498615D01*
X160175008Y-130498615D01*
X160175012Y-130498615D01*
X160356049Y-130478217D01*
X160356052Y-130478216D01*
X160356055Y-130478216D01*
X160528023Y-130418042D01*
X160682289Y-130321110D01*
X160811119Y-130192280D01*
X160908051Y-130038014D01*
X160968225Y-129866046D01*
X160968226Y-129866040D01*
X160977358Y-129784995D01*
X162261392Y-129784995D01*
X162261392Y-129785002D01*
X162281789Y-129966040D01*
X162281790Y-129966045D01*
X162341966Y-130138016D01*
X162438897Y-130292280D01*
X162567727Y-130421110D01*
X162721993Y-130518042D01*
X162862299Y-130567137D01*
X162893961Y-130578216D01*
X162893966Y-130578217D01*
X163075004Y-130598615D01*
X163075008Y-130598615D01*
X163075012Y-130598615D01*
X163256049Y-130578217D01*
X163256052Y-130578216D01*
X163256055Y-130578216D01*
X163428023Y-130518042D01*
X163582289Y-130421110D01*
X163711119Y-130292280D01*
X163808051Y-130138014D01*
X163868225Y-129966046D01*
X163868226Y-129966040D01*
X163888624Y-129785002D01*
X163888624Y-129784995D01*
X163868226Y-129603957D01*
X163868225Y-129603952D01*
X163833235Y-129503957D01*
X163808051Y-129431984D01*
X163711119Y-129277718D01*
X163582289Y-129148888D01*
X163491404Y-129091781D01*
X163428025Y-129051957D01*
X163428024Y-129051956D01*
X163428023Y-129051956D01*
X163373701Y-129032948D01*
X163256054Y-128991781D01*
X163256049Y-128991780D01*
X163075012Y-128971383D01*
X163075004Y-128971383D01*
X162893966Y-128991780D01*
X162893961Y-128991781D01*
X162721990Y-129051957D01*
X162567726Y-129148888D01*
X162438897Y-129277717D01*
X162341966Y-129431981D01*
X162281790Y-129603952D01*
X162281789Y-129603957D01*
X162261392Y-129784995D01*
X160977358Y-129784995D01*
X160988624Y-129685002D01*
X160988624Y-129684995D01*
X160968226Y-129503957D01*
X160968225Y-129503952D01*
X160943041Y-129431981D01*
X160908051Y-129331984D01*
X160811119Y-129177718D01*
X160682289Y-129048888D01*
X160591404Y-128991781D01*
X160528025Y-128951957D01*
X160528024Y-128951956D01*
X160528023Y-128951956D01*
X160473701Y-128932948D01*
X160356054Y-128891781D01*
X160356049Y-128891780D01*
X160175012Y-128871383D01*
X160175004Y-128871383D01*
X159993966Y-128891780D01*
X159993961Y-128891781D01*
X159821990Y-128951957D01*
X159667726Y-129048888D01*
X159538897Y-129177717D01*
X159441966Y-129331981D01*
X159381790Y-129503952D01*
X159381789Y-129503957D01*
X159361392Y-129684995D01*
X156961592Y-129684995D01*
X156933235Y-129603957D01*
X156908051Y-129531984D01*
X156811119Y-129377718D01*
X156682289Y-129248888D01*
X156639273Y-129221859D01*
X156528025Y-129151957D01*
X156528024Y-129151956D01*
X156528023Y-129151956D01*
X156473701Y-129132948D01*
X156356054Y-129091781D01*
X156356049Y-129091780D01*
X156175012Y-129071383D01*
X156175004Y-129071383D01*
X155993966Y-129091780D01*
X155993961Y-129091781D01*
X155821990Y-129151957D01*
X155740980Y-129202859D01*
X155673743Y-129221859D01*
X155609036Y-129202859D01*
X155528025Y-129151957D01*
X155528024Y-129151956D01*
X155528023Y-129151956D01*
X155473701Y-129132948D01*
X155356054Y-129091781D01*
X155356049Y-129091780D01*
X155175012Y-129071383D01*
X155175004Y-129071383D01*
X154993966Y-129091780D01*
X154993961Y-129091781D01*
X154821990Y-129151957D01*
X154667726Y-129248888D01*
X154538897Y-129377717D01*
X154441966Y-129531981D01*
X154381790Y-129703952D01*
X154381789Y-129703957D01*
X154361392Y-129884995D01*
X148961594Y-129884995D01*
X148968225Y-129866046D01*
X148968226Y-129866040D01*
X148988624Y-129685002D01*
X148988624Y-129684995D01*
X148968226Y-129503957D01*
X148968225Y-129503952D01*
X148943041Y-129431981D01*
X148908051Y-129331984D01*
X148811119Y-129177718D01*
X148682289Y-129048888D01*
X148591404Y-128991781D01*
X148528025Y-128951957D01*
X148528024Y-128951956D01*
X148528023Y-128951956D01*
X148473701Y-128932948D01*
X148356054Y-128891781D01*
X148356049Y-128891780D01*
X148175012Y-128871383D01*
X148175004Y-128871383D01*
X147993966Y-128891780D01*
X147993961Y-128891781D01*
X147821990Y-128951957D01*
X147667726Y-129048888D01*
X147538897Y-129177717D01*
X147441966Y-129331981D01*
X147381790Y-129503952D01*
X147381789Y-129503957D01*
X147361392Y-129684995D01*
X129675508Y-129684995D01*
X129675508Y-127484995D01*
X135273892Y-127484995D01*
X135273892Y-127485002D01*
X135294289Y-127666040D01*
X135294290Y-127666045D01*
X135354466Y-127838016D01*
X135395897Y-127903952D01*
X135451397Y-127992280D01*
X135580227Y-128121110D01*
X135734493Y-128218042D01*
X135906461Y-128278216D01*
X135906466Y-128278217D01*
X136087504Y-128298615D01*
X136087508Y-128298615D01*
X136087512Y-128298615D01*
X136268549Y-128278217D01*
X136268552Y-128278216D01*
X136268555Y-128278216D01*
X136440523Y-128218042D01*
X136594789Y-128121110D01*
X136723619Y-127992280D01*
X136820551Y-127838014D01*
X136833854Y-127799995D01*
X167046392Y-127799995D01*
X167046392Y-127800002D01*
X167066789Y-127981040D01*
X167066790Y-127981045D01*
X167126966Y-128153016D01*
X167167825Y-128218042D01*
X167223897Y-128307280D01*
X167352727Y-128436110D01*
X167506993Y-128533042D01*
X167676286Y-128592280D01*
X167678961Y-128593216D01*
X167678966Y-128593217D01*
X167860004Y-128613615D01*
X167860008Y-128613615D01*
X167860012Y-128613615D01*
X168041049Y-128593217D01*
X168041052Y-128593216D01*
X168041055Y-128593216D01*
X168213023Y-128533042D01*
X168367289Y-128436110D01*
X168496119Y-128307280D01*
X168553756Y-128215550D01*
X168606089Y-128169260D01*
X168675142Y-128158611D01*
X168738991Y-128186986D01*
X168777363Y-128245376D01*
X168780236Y-128259260D01*
X168780242Y-128259259D01*
X168781790Y-128266045D01*
X168793187Y-128298615D01*
X168841965Y-128438014D01*
X168938897Y-128592280D01*
X169067727Y-128721110D01*
X169221993Y-128818042D01*
X169393961Y-128878216D01*
X169393966Y-128878217D01*
X169575004Y-128898615D01*
X169575008Y-128898615D01*
X169575012Y-128898615D01*
X169756049Y-128878217D01*
X169756052Y-128878216D01*
X169756055Y-128878216D01*
X169928023Y-128818042D01*
X170082289Y-128721110D01*
X170211119Y-128592280D01*
X170308051Y-128438014D01*
X170368225Y-128266046D01*
X170370554Y-128245376D01*
X170388624Y-128085002D01*
X170388624Y-128084995D01*
X170368226Y-127903957D01*
X170368225Y-127903952D01*
X170361592Y-127884995D01*
X172161392Y-127884995D01*
X172161392Y-127885002D01*
X172181789Y-128066040D01*
X172181790Y-128066045D01*
X172241966Y-128238016D01*
X172267226Y-128278217D01*
X172338897Y-128392280D01*
X172467727Y-128521110D01*
X172621993Y-128618042D01*
X172793961Y-128678216D01*
X172793966Y-128678217D01*
X172975004Y-128698615D01*
X172975008Y-128698615D01*
X172975012Y-128698615D01*
X173156049Y-128678217D01*
X173156052Y-128678216D01*
X173156055Y-128678216D01*
X173328023Y-128618042D01*
X173482289Y-128521110D01*
X173611119Y-128392280D01*
X173708051Y-128238014D01*
X173768225Y-128066046D01*
X173768226Y-128066040D01*
X173788624Y-127885002D01*
X173788624Y-127884995D01*
X173768226Y-127703957D01*
X173768225Y-127703952D01*
X173708051Y-127531984D01*
X173611119Y-127377718D01*
X173482289Y-127248888D01*
X173328023Y-127151956D01*
X173270938Y-127131981D01*
X173156054Y-127091781D01*
X173156049Y-127091780D01*
X172975012Y-127071383D01*
X172975004Y-127071383D01*
X172793966Y-127091780D01*
X172793961Y-127091781D01*
X172621990Y-127151957D01*
X172467726Y-127248888D01*
X172338897Y-127377717D01*
X172241966Y-127531981D01*
X172181790Y-127703952D01*
X172181789Y-127703957D01*
X172161392Y-127884995D01*
X170361592Y-127884995D01*
X170331850Y-127799999D01*
X170308051Y-127731984D01*
X170211119Y-127577718D01*
X170082289Y-127448888D01*
X169969023Y-127377718D01*
X169928025Y-127351957D01*
X169928024Y-127351956D01*
X169928023Y-127351956D01*
X169873701Y-127332948D01*
X169756054Y-127291781D01*
X169756049Y-127291780D01*
X169575012Y-127271383D01*
X169575004Y-127271383D01*
X169393966Y-127291780D01*
X169393961Y-127291781D01*
X169221990Y-127351957D01*
X169067726Y-127448888D01*
X168938895Y-127577719D01*
X168881259Y-127669447D01*
X168828925Y-127715737D01*
X168759871Y-127726385D01*
X168696023Y-127698010D01*
X168657651Y-127639620D01*
X168654779Y-127625737D01*
X168654774Y-127625739D01*
X168653225Y-127618952D01*
X168638797Y-127577719D01*
X168593051Y-127446984D01*
X168496119Y-127292718D01*
X168367289Y-127163888D01*
X168316514Y-127131984D01*
X168213025Y-127066957D01*
X168213024Y-127066956D01*
X168213023Y-127066956D01*
X168158701Y-127047948D01*
X168041054Y-127006781D01*
X168041049Y-127006780D01*
X167860012Y-126986383D01*
X167860004Y-126986383D01*
X167678966Y-127006780D01*
X167678961Y-127006781D01*
X167506990Y-127066957D01*
X167352726Y-127163888D01*
X167223897Y-127292717D01*
X167126966Y-127446981D01*
X167066790Y-127618952D01*
X167066789Y-127618957D01*
X167046392Y-127799995D01*
X136833854Y-127799995D01*
X136880725Y-127666046D01*
X136880726Y-127666040D01*
X136901124Y-127485002D01*
X136901124Y-127484995D01*
X136880726Y-127303957D01*
X136880725Y-127303952D01*
X136876794Y-127292717D01*
X136820551Y-127131984D01*
X136723619Y-126977718D01*
X136630896Y-126884995D01*
X141673892Y-126884995D01*
X141673892Y-126885002D01*
X141694289Y-127066040D01*
X141694290Y-127066045D01*
X141754466Y-127238016D01*
X141788249Y-127291781D01*
X141851397Y-127392280D01*
X141980227Y-127521110D01*
X142134493Y-127618042D01*
X142281401Y-127669447D01*
X142306461Y-127678216D01*
X142306466Y-127678217D01*
X142487504Y-127698615D01*
X142487508Y-127698615D01*
X142487512Y-127698615D01*
X142668549Y-127678217D01*
X142668552Y-127678216D01*
X142668555Y-127678216D01*
X142840523Y-127618042D01*
X142994789Y-127521110D01*
X143123619Y-127392280D01*
X143220551Y-127238014D01*
X143280725Y-127066046D01*
X143280726Y-127066040D01*
X143301124Y-126885002D01*
X143301124Y-126884995D01*
X143280726Y-126703957D01*
X143280725Y-126703952D01*
X143220551Y-126531984D01*
X143123619Y-126377718D01*
X142994789Y-126248888D01*
X142840523Y-126151956D01*
X142786201Y-126132948D01*
X142668554Y-126091781D01*
X142668549Y-126091780D01*
X142487512Y-126071383D01*
X142487504Y-126071383D01*
X142306466Y-126091780D01*
X142306461Y-126091781D01*
X142134490Y-126151957D01*
X141980226Y-126248888D01*
X141851397Y-126377717D01*
X141754466Y-126531981D01*
X141694290Y-126703952D01*
X141694289Y-126703957D01*
X141673892Y-126884995D01*
X136630896Y-126884995D01*
X136594789Y-126848888D01*
X136440523Y-126751956D01*
X136386201Y-126732948D01*
X136268554Y-126691781D01*
X136268549Y-126691780D01*
X136087512Y-126671383D01*
X136087504Y-126671383D01*
X135906466Y-126691780D01*
X135906461Y-126691781D01*
X135734490Y-126751957D01*
X135580226Y-126848888D01*
X135451397Y-126977717D01*
X135354466Y-127131981D01*
X135294290Y-127303952D01*
X135294289Y-127303957D01*
X135273892Y-127484995D01*
X129675508Y-127484995D01*
X129675508Y-124884995D01*
X135561392Y-124884995D01*
X135561392Y-124885002D01*
X135581789Y-125066040D01*
X135581790Y-125066045D01*
X135622957Y-125183692D01*
X135641965Y-125238014D01*
X135738897Y-125392280D01*
X135867727Y-125521110D01*
X136021993Y-125618042D01*
X136193961Y-125678216D01*
X136193966Y-125678217D01*
X136375004Y-125698615D01*
X136375008Y-125698615D01*
X136375012Y-125698615D01*
X136556049Y-125678217D01*
X136556052Y-125678216D01*
X136556055Y-125678216D01*
X136728023Y-125618042D01*
X136882289Y-125521110D01*
X137011119Y-125392280D01*
X137108051Y-125238014D01*
X137168225Y-125066046D01*
X137188624Y-124884999D01*
X137168225Y-124703952D01*
X137108051Y-124531984D01*
X137011119Y-124377718D01*
X136882289Y-124248888D01*
X136728023Y-124151956D01*
X136673701Y-124132948D01*
X136556054Y-124091781D01*
X136556049Y-124091780D01*
X136375012Y-124071383D01*
X136375004Y-124071383D01*
X136193966Y-124091780D01*
X136193961Y-124091781D01*
X136021990Y-124151957D01*
X135867726Y-124248888D01*
X135738897Y-124377717D01*
X135641966Y-124531981D01*
X135581790Y-124703952D01*
X135581789Y-124703957D01*
X135561392Y-124884995D01*
X129675508Y-124884995D01*
X129675508Y-114884995D01*
X136073892Y-114884995D01*
X136073892Y-114885002D01*
X136094289Y-115066040D01*
X136094290Y-115066045D01*
X136154466Y-115238016D01*
X136251397Y-115392280D01*
X136380227Y-115521110D01*
X136534493Y-115618042D01*
X136706461Y-115678216D01*
X136706466Y-115678217D01*
X136887504Y-115698615D01*
X136887508Y-115698615D01*
X136887512Y-115698615D01*
X137068549Y-115678217D01*
X137068552Y-115678216D01*
X137068555Y-115678216D01*
X137240523Y-115618042D01*
X137394789Y-115521110D01*
X137523619Y-115392280D01*
X137591031Y-115284995D01*
X147961392Y-115284995D01*
X147961392Y-115285002D01*
X147981789Y-115466040D01*
X147981790Y-115466045D01*
X148041966Y-115638016D01*
X148067226Y-115678217D01*
X148138897Y-115792280D01*
X148267727Y-115921110D01*
X148421993Y-116018042D01*
X148593958Y-116078215D01*
X148593961Y-116078216D01*
X148593966Y-116078217D01*
X148775004Y-116098615D01*
X148775008Y-116098615D01*
X148775012Y-116098615D01*
X148956049Y-116078217D01*
X148956051Y-116078216D01*
X148956055Y-116078216D01*
X149040714Y-116048592D01*
X149134054Y-116015932D01*
X149203832Y-116012371D01*
X149215962Y-116015932D01*
X149393958Y-116078215D01*
X149393961Y-116078216D01*
X149393962Y-116078216D01*
X149393966Y-116078217D01*
X149575004Y-116098615D01*
X149575008Y-116098615D01*
X149575012Y-116098615D01*
X149756049Y-116078217D01*
X149756052Y-116078216D01*
X149756055Y-116078216D01*
X149928023Y-116018042D01*
X150082289Y-115921110D01*
X150211119Y-115792280D01*
X150308051Y-115638014D01*
X150368225Y-115466046D01*
X150368226Y-115466040D01*
X150388624Y-115285002D01*
X150388624Y-115284995D01*
X150368226Y-115103957D01*
X150368225Y-115103952D01*
X150308051Y-114931984D01*
X150211119Y-114777718D01*
X150082289Y-114648888D01*
X149975007Y-114581478D01*
X149928025Y-114551957D01*
X149928024Y-114551956D01*
X149928023Y-114551956D01*
X149870938Y-114531981D01*
X149756054Y-114491781D01*
X149756049Y-114491780D01*
X149575012Y-114471383D01*
X149575004Y-114471383D01*
X149393966Y-114491780D01*
X149393958Y-114491782D01*
X149215962Y-114554066D01*
X149146184Y-114557627D01*
X149134054Y-114554066D01*
X148956057Y-114491782D01*
X148956049Y-114491780D01*
X148775012Y-114471383D01*
X148775004Y-114471383D01*
X148593966Y-114491780D01*
X148593961Y-114491781D01*
X148421990Y-114551957D01*
X148267726Y-114648888D01*
X148138897Y-114777717D01*
X148041966Y-114931981D01*
X147981790Y-115103952D01*
X147981789Y-115103957D01*
X147961392Y-115284995D01*
X137591031Y-115284995D01*
X137620551Y-115238014D01*
X137680725Y-115066046D01*
X137695830Y-114931984D01*
X137701124Y-114885002D01*
X137701124Y-114884995D01*
X137680726Y-114703957D01*
X137680725Y-114703952D01*
X137657652Y-114638014D01*
X137620551Y-114531984D01*
X137523619Y-114377718D01*
X137430896Y-114284995D01*
X165761392Y-114284995D01*
X165761392Y-114285002D01*
X165781789Y-114466040D01*
X165781790Y-114466045D01*
X165841966Y-114638016D01*
X165883397Y-114703952D01*
X165938897Y-114792280D01*
X166067727Y-114921110D01*
X166221993Y-115018042D01*
X166393961Y-115078216D01*
X166393966Y-115078217D01*
X166575004Y-115098615D01*
X166575008Y-115098615D01*
X166575012Y-115098615D01*
X166756049Y-115078217D01*
X166756052Y-115078216D01*
X166756055Y-115078216D01*
X166928023Y-115018042D01*
X167082289Y-114921110D01*
X167211119Y-114792280D01*
X167308051Y-114638014D01*
X167368225Y-114466046D01*
X167378177Y-114377718D01*
X167388624Y-114285002D01*
X167388624Y-114284995D01*
X167368226Y-114103957D01*
X167368225Y-114103952D01*
X167308051Y-113931984D01*
X167211119Y-113777718D01*
X167082289Y-113648888D01*
X166969817Y-113578217D01*
X166928025Y-113551957D01*
X166928024Y-113551956D01*
X166928023Y-113551956D01*
X166873701Y-113532948D01*
X166756054Y-113491781D01*
X166756049Y-113491780D01*
X166575012Y-113471383D01*
X166575004Y-113471383D01*
X166393966Y-113491780D01*
X166393961Y-113491781D01*
X166221990Y-113551957D01*
X166067726Y-113648888D01*
X165938897Y-113777717D01*
X165841966Y-113931981D01*
X165781790Y-114103952D01*
X165781789Y-114103957D01*
X165761392Y-114284995D01*
X137430896Y-114284995D01*
X137394789Y-114248888D01*
X137240523Y-114151956D01*
X137186201Y-114132948D01*
X137068554Y-114091781D01*
X137068549Y-114091780D01*
X136887512Y-114071383D01*
X136887504Y-114071383D01*
X136706466Y-114091780D01*
X136706461Y-114091781D01*
X136534490Y-114151957D01*
X136380226Y-114248888D01*
X136251397Y-114377717D01*
X136154466Y-114531981D01*
X136094290Y-114703952D01*
X136094289Y-114703957D01*
X136073892Y-114884995D01*
X129675508Y-114884995D01*
X129675508Y-112784995D01*
X175761392Y-112784995D01*
X175761392Y-112785002D01*
X175781789Y-112966040D01*
X175781790Y-112966045D01*
X175822957Y-113083692D01*
X175841965Y-113138014D01*
X175938897Y-113292280D01*
X176067727Y-113421110D01*
X176221993Y-113518042D01*
X176393961Y-113578216D01*
X176393966Y-113578217D01*
X176575004Y-113598615D01*
X176575008Y-113598615D01*
X176575012Y-113598615D01*
X176756049Y-113578217D01*
X176756052Y-113578216D01*
X176756055Y-113578216D01*
X176928023Y-113518042D01*
X177082289Y-113421110D01*
X177211119Y-113292280D01*
X177308051Y-113138014D01*
X177368225Y-112966046D01*
X177388624Y-112784999D01*
X177368225Y-112603952D01*
X177308051Y-112431984D01*
X177211119Y-112277718D01*
X177082289Y-112148888D01*
X176928023Y-112051956D01*
X176873701Y-112032948D01*
X176756054Y-111991781D01*
X176756049Y-111991780D01*
X176575012Y-111971383D01*
X176575004Y-111971383D01*
X176393966Y-111991780D01*
X176393961Y-111991781D01*
X176221990Y-112051957D01*
X176067726Y-112148888D01*
X175938897Y-112277717D01*
X175841966Y-112431981D01*
X175781790Y-112603952D01*
X175781789Y-112603957D01*
X175761392Y-112784995D01*
X129675508Y-112784995D01*
X129675508Y-110584995D01*
X170161392Y-110584995D01*
X170161392Y-110585002D01*
X170181789Y-110766040D01*
X170181790Y-110766045D01*
X170241966Y-110938016D01*
X170338897Y-111092280D01*
X170343935Y-111097318D01*
X170377420Y-111158641D01*
X170372436Y-111228333D01*
X170343935Y-111272680D01*
X170338897Y-111277717D01*
X170241966Y-111431981D01*
X170181790Y-111603952D01*
X170181789Y-111603957D01*
X170161392Y-111784995D01*
X170161392Y-111785002D01*
X170181789Y-111966040D01*
X170181790Y-111966045D01*
X170241966Y-112138016D01*
X170329746Y-112277717D01*
X170338897Y-112292280D01*
X170467727Y-112421110D01*
X170621993Y-112518042D01*
X170793961Y-112578216D01*
X170793966Y-112578217D01*
X170975004Y-112598615D01*
X170975008Y-112598615D01*
X170975012Y-112598615D01*
X171156049Y-112578217D01*
X171156052Y-112578216D01*
X171156055Y-112578216D01*
X171328023Y-112518042D01*
X171482289Y-112421110D01*
X171611119Y-112292280D01*
X171708051Y-112138014D01*
X171768225Y-111966046D01*
X171788624Y-111784999D01*
X171768225Y-111603952D01*
X171708051Y-111431984D01*
X171611119Y-111277718D01*
X171606081Y-111272680D01*
X171572596Y-111211357D01*
X171577580Y-111141665D01*
X171606081Y-111097318D01*
X171611119Y-111092280D01*
X171708051Y-110938014D01*
X171768225Y-110766046D01*
X171788624Y-110584999D01*
X171768225Y-110403952D01*
X171708051Y-110231984D01*
X171611119Y-110077718D01*
X171482289Y-109948888D01*
X171328023Y-109851956D01*
X171273701Y-109832948D01*
X171156054Y-109791781D01*
X171156049Y-109791780D01*
X170975012Y-109771383D01*
X170975004Y-109771383D01*
X170793966Y-109791780D01*
X170793961Y-109791781D01*
X170621990Y-109851957D01*
X170467726Y-109948888D01*
X170338897Y-110077717D01*
X170241966Y-110231981D01*
X170181790Y-110403952D01*
X170181789Y-110403957D01*
X170161392Y-110584995D01*
X129675508Y-110584995D01*
X129675508Y-108884995D01*
X147561392Y-108884995D01*
X147561392Y-108885002D01*
X147581789Y-109066040D01*
X147581790Y-109066045D01*
X147585875Y-109077718D01*
X147641965Y-109238014D01*
X147738897Y-109392280D01*
X147867727Y-109521110D01*
X148021993Y-109618042D01*
X148193958Y-109678215D01*
X148193961Y-109678216D01*
X148193966Y-109678217D01*
X148375004Y-109698615D01*
X148375008Y-109698615D01*
X148375012Y-109698615D01*
X148556049Y-109678217D01*
X148556052Y-109678216D01*
X148556055Y-109678216D01*
X148728023Y-109618042D01*
X148882289Y-109521110D01*
X148887327Y-109516072D01*
X148948650Y-109482587D01*
X149018342Y-109487571D01*
X149062689Y-109516072D01*
X149067727Y-109521110D01*
X149221993Y-109618042D01*
X149393958Y-109678215D01*
X149393961Y-109678216D01*
X149393966Y-109678217D01*
X149575004Y-109698615D01*
X149575008Y-109698615D01*
X149575012Y-109698615D01*
X149756049Y-109678217D01*
X149756052Y-109678216D01*
X149756055Y-109678216D01*
X149756056Y-109678215D01*
X149756059Y-109678215D01*
X149783898Y-109668473D01*
X149843919Y-109647470D01*
X149913696Y-109643908D01*
X149974323Y-109678636D01*
X150001914Y-109723557D01*
X150041963Y-109838010D01*
X150041964Y-109838014D01*
X150111632Y-109948888D01*
X150138897Y-109992280D01*
X150267727Y-110121110D01*
X150421993Y-110218042D01*
X150593961Y-110278216D01*
X150593966Y-110278217D01*
X150775004Y-110298615D01*
X150775008Y-110298615D01*
X150775012Y-110298615D01*
X150956049Y-110278217D01*
X150956052Y-110278216D01*
X150956055Y-110278216D01*
X151128023Y-110218042D01*
X151282289Y-110121110D01*
X151411119Y-109992280D01*
X151508051Y-109838014D01*
X151568225Y-109666046D01*
X151575875Y-109598142D01*
X151602940Y-109533733D01*
X151660535Y-109494177D01*
X151712977Y-109488809D01*
X151757284Y-109493801D01*
X151800006Y-109498615D01*
X151800008Y-109498615D01*
X151800012Y-109498615D01*
X151981049Y-109478217D01*
X151981052Y-109478216D01*
X151981055Y-109478216D01*
X152153023Y-109418042D01*
X152307289Y-109321110D01*
X152436119Y-109192280D01*
X152533051Y-109038014D01*
X152593225Y-108866046D01*
X152593226Y-108866040D01*
X152613624Y-108685002D01*
X152613624Y-108684995D01*
X152886392Y-108684995D01*
X152886392Y-108685002D01*
X152906789Y-108866040D01*
X152906790Y-108866045D01*
X152947957Y-108983692D01*
X152966965Y-109038014D01*
X153063897Y-109192280D01*
X153192727Y-109321110D01*
X153346993Y-109418042D01*
X153486582Y-109466886D01*
X153518961Y-109478216D01*
X153518966Y-109478217D01*
X153700004Y-109498615D01*
X153700008Y-109498615D01*
X153700010Y-109498615D01*
X153751468Y-109492816D01*
X153836410Y-109483246D01*
X153905231Y-109495300D01*
X153956610Y-109542649D01*
X153973513Y-109592582D01*
X153981789Y-109666041D01*
X153981790Y-109666045D01*
X154041966Y-109838016D01*
X154111632Y-109948888D01*
X154138897Y-109992280D01*
X154267727Y-110121110D01*
X154421993Y-110218042D01*
X154593961Y-110278216D01*
X154593966Y-110278217D01*
X154775004Y-110298615D01*
X154775008Y-110298615D01*
X154775012Y-110298615D01*
X154956049Y-110278217D01*
X154956052Y-110278216D01*
X154956055Y-110278216D01*
X155128023Y-110218042D01*
X155282289Y-110121110D01*
X155411119Y-109992280D01*
X155508051Y-109838014D01*
X155548101Y-109723555D01*
X155588821Y-109666782D01*
X155653774Y-109641034D01*
X155706095Y-109647470D01*
X155741742Y-109659944D01*
X155793956Y-109678215D01*
X155793966Y-109678217D01*
X155975004Y-109698615D01*
X155975008Y-109698615D01*
X155975012Y-109698615D01*
X156156049Y-109678217D01*
X156156052Y-109678216D01*
X156156055Y-109678216D01*
X156328023Y-109618042D01*
X156380617Y-109584995D01*
X177161392Y-109584995D01*
X177161392Y-109585002D01*
X177181789Y-109766040D01*
X177181790Y-109766045D01*
X177241966Y-109938016D01*
X177276063Y-109992280D01*
X177338897Y-110092280D01*
X177467727Y-110221110D01*
X177621993Y-110318042D01*
X177793961Y-110378216D01*
X177793966Y-110378217D01*
X177975004Y-110398615D01*
X177975008Y-110398615D01*
X177975012Y-110398615D01*
X178156049Y-110378217D01*
X178156052Y-110378216D01*
X178156055Y-110378216D01*
X178328023Y-110318042D01*
X178482289Y-110221110D01*
X178611119Y-110092280D01*
X178708051Y-109938014D01*
X178768225Y-109766046D01*
X178768226Y-109766040D01*
X178788624Y-109585002D01*
X178788624Y-109584995D01*
X178768226Y-109403957D01*
X178768225Y-109403952D01*
X178739237Y-109321109D01*
X178708051Y-109231984D01*
X178611119Y-109077718D01*
X178482289Y-108948888D01*
X178328025Y-108851957D01*
X178328024Y-108851956D01*
X178328023Y-108851956D01*
X178273701Y-108832948D01*
X178156054Y-108791781D01*
X178156049Y-108791780D01*
X177975012Y-108771383D01*
X177975004Y-108771383D01*
X177793966Y-108791780D01*
X177793961Y-108791781D01*
X177621990Y-108851957D01*
X177467726Y-108948888D01*
X177338897Y-109077717D01*
X177241966Y-109231981D01*
X177181790Y-109403952D01*
X177181789Y-109403957D01*
X177161392Y-109584995D01*
X156380617Y-109584995D01*
X156482289Y-109521110D01*
X156611119Y-109392280D01*
X156708051Y-109238014D01*
X156768225Y-109066046D01*
X156768226Y-109066040D01*
X156788624Y-108885002D01*
X156788624Y-108884995D01*
X156768226Y-108703957D01*
X156768225Y-108703952D01*
X156767931Y-108703111D01*
X156708051Y-108531984D01*
X156611119Y-108377718D01*
X156482289Y-108248888D01*
X156369023Y-108177718D01*
X156328025Y-108151957D01*
X156328024Y-108151956D01*
X156328023Y-108151956D01*
X156273701Y-108132948D01*
X156156054Y-108091781D01*
X156156049Y-108091780D01*
X155975012Y-108071383D01*
X155975004Y-108071383D01*
X155793966Y-108091780D01*
X155793961Y-108091781D01*
X155621990Y-108151957D01*
X155467726Y-108248888D01*
X155338897Y-108377717D01*
X155241965Y-108531982D01*
X155201916Y-108646438D01*
X155161194Y-108703215D01*
X155096241Y-108728962D01*
X155043920Y-108722526D01*
X154956057Y-108691782D01*
X154956049Y-108691780D01*
X154775012Y-108671383D01*
X154775004Y-108671383D01*
X154638605Y-108686751D01*
X154569783Y-108674696D01*
X154518404Y-108627347D01*
X154501502Y-108577413D01*
X154493226Y-108503957D01*
X154493225Y-108503952D01*
X154485734Y-108482544D01*
X154433051Y-108331984D01*
X154336119Y-108177718D01*
X154207289Y-108048888D01*
X154053023Y-107951956D01*
X153998701Y-107932948D01*
X153881054Y-107891781D01*
X153881049Y-107891780D01*
X153700012Y-107871383D01*
X153700004Y-107871383D01*
X153518966Y-107891780D01*
X153518961Y-107891781D01*
X153346990Y-107951957D01*
X153192726Y-108048888D01*
X153063897Y-108177717D01*
X152966966Y-108331981D01*
X152906790Y-108503952D01*
X152906789Y-108503957D01*
X152886392Y-108684995D01*
X152613624Y-108684995D01*
X152593226Y-108503957D01*
X152593225Y-108503952D01*
X152585734Y-108482544D01*
X152533051Y-108331984D01*
X152436119Y-108177718D01*
X152307289Y-108048888D01*
X152153023Y-107951956D01*
X152098701Y-107932948D01*
X151981054Y-107891781D01*
X151981049Y-107891780D01*
X151800012Y-107871383D01*
X151800004Y-107871383D01*
X151618966Y-107891780D01*
X151618961Y-107891781D01*
X151446990Y-107951957D01*
X151292726Y-108048888D01*
X151163897Y-108177717D01*
X151066966Y-108331981D01*
X151006790Y-108503952D01*
X151006789Y-108503957D01*
X150999140Y-108571851D01*
X150972074Y-108636265D01*
X150914479Y-108675821D01*
X150862037Y-108681188D01*
X150775012Y-108671383D01*
X150775004Y-108671383D01*
X150593966Y-108691780D01*
X150593958Y-108691782D01*
X150506096Y-108722526D01*
X150436317Y-108726087D01*
X150375690Y-108691358D01*
X150348100Y-108646438D01*
X150308050Y-108531982D01*
X150211118Y-108377717D01*
X150082289Y-108248888D01*
X149928025Y-108151957D01*
X149928024Y-108151956D01*
X149928023Y-108151956D01*
X149873701Y-108132948D01*
X149756054Y-108091781D01*
X149756049Y-108091780D01*
X149575012Y-108071383D01*
X149575004Y-108071383D01*
X149393966Y-108091780D01*
X149393961Y-108091781D01*
X149221990Y-108151957D01*
X149067726Y-108248888D01*
X149062689Y-108253926D01*
X149001366Y-108287411D01*
X148931674Y-108282427D01*
X148887327Y-108253926D01*
X148882289Y-108248888D01*
X148728025Y-108151957D01*
X148728024Y-108151956D01*
X148728023Y-108151956D01*
X148673701Y-108132948D01*
X148556054Y-108091781D01*
X148556049Y-108091780D01*
X148375012Y-108071383D01*
X148375004Y-108071383D01*
X148193966Y-108091780D01*
X148193961Y-108091781D01*
X148021990Y-108151957D01*
X147867726Y-108248888D01*
X147738897Y-108377717D01*
X147641966Y-108531981D01*
X147581790Y-108703952D01*
X147581789Y-108703957D01*
X147561392Y-108884995D01*
X129675508Y-108884995D01*
X129675508Y-107784999D01*
X178011366Y-107784999D01*
X178031878Y-107980156D01*
X178031879Y-107980158D01*
X178092513Y-108166773D01*
X178092516Y-108166779D01*
X178190631Y-108336719D01*
X178321934Y-108482546D01*
X178444852Y-108571851D01*
X178480687Y-108597887D01*
X178659946Y-108677699D01*
X178659952Y-108677701D01*
X178851893Y-108718499D01*
X178851894Y-108718499D01*
X179048121Y-108718499D01*
X179048123Y-108718499D01*
X179240064Y-108677701D01*
X179240066Y-108677699D01*
X179240069Y-108677699D01*
X179310282Y-108646438D01*
X179419329Y-108597887D01*
X179578082Y-108482546D01*
X179709385Y-108336719D01*
X179807500Y-108166779D01*
X179868138Y-107980154D01*
X179888650Y-107784999D01*
X179868138Y-107589844D01*
X179838630Y-107499027D01*
X179836635Y-107429186D01*
X179840380Y-107417375D01*
X179876995Y-107319206D01*
X179876995Y-107319204D01*
X179876997Y-107319200D01*
X179880599Y-107285691D01*
X179883507Y-107258653D01*
X179883508Y-107258636D01*
X179883508Y-106311361D01*
X179883507Y-106311344D01*
X179878636Y-106266045D01*
X179876997Y-106250798D01*
X179825897Y-106113795D01*
X179738269Y-105996738D01*
X179621212Y-105909110D01*
X179484211Y-105858010D01*
X179423662Y-105851499D01*
X179423646Y-105851499D01*
X178476370Y-105851499D01*
X178476353Y-105851499D01*
X178415805Y-105858010D01*
X178415803Y-105858010D01*
X178278803Y-105909110D01*
X178161747Y-105996738D01*
X178074119Y-106113794D01*
X178023019Y-106250794D01*
X178023019Y-106250796D01*
X178016508Y-106311344D01*
X178016508Y-107258653D01*
X178023018Y-107319200D01*
X178059636Y-107417374D01*
X178064620Y-107487066D01*
X178061386Y-107499024D01*
X178031878Y-107589842D01*
X178031878Y-107589843D01*
X178011366Y-107784999D01*
X129675508Y-107784999D01*
X129675508Y-105284995D01*
X149561392Y-105284995D01*
X149561392Y-105285002D01*
X149581789Y-105466040D01*
X149581790Y-105466045D01*
X149641966Y-105638016D01*
X149701010Y-105731984D01*
X149738897Y-105792280D01*
X149867727Y-105921110D01*
X150021993Y-106018042D01*
X150187608Y-106075993D01*
X150193961Y-106078216D01*
X150193966Y-106078217D01*
X150375004Y-106098615D01*
X150375008Y-106098615D01*
X150375011Y-106098615D01*
X150437349Y-106091591D01*
X150506171Y-106103645D01*
X150557551Y-106150994D01*
X150574453Y-106200927D01*
X150581789Y-106266041D01*
X150581790Y-106266045D01*
X150597641Y-106311344D01*
X150641965Y-106438014D01*
X150738897Y-106592280D01*
X150867727Y-106721110D01*
X151021993Y-106818042D01*
X151193955Y-106878214D01*
X151193961Y-106878216D01*
X151193966Y-106878217D01*
X151375004Y-106898615D01*
X151375008Y-106898615D01*
X151375012Y-106898615D01*
X151556049Y-106878217D01*
X151556052Y-106878216D01*
X151556055Y-106878216D01*
X151728023Y-106818042D01*
X151789141Y-106779639D01*
X151856378Y-106760638D01*
X151921086Y-106779638D01*
X152021993Y-106843042D01*
X152180812Y-106898615D01*
X152193961Y-106903216D01*
X152193966Y-106903217D01*
X152375004Y-106923615D01*
X152375008Y-106923615D01*
X152375012Y-106923615D01*
X152556049Y-106903217D01*
X152556051Y-106903216D01*
X152556055Y-106903216D01*
X152728023Y-106843042D01*
X152736624Y-106837637D01*
X152803857Y-106818634D01*
X152843554Y-106825587D01*
X152993953Y-106878214D01*
X152993959Y-106878215D01*
X152993961Y-106878216D01*
X152993962Y-106878216D01*
X152993966Y-106878217D01*
X153175004Y-106898615D01*
X153175008Y-106898615D01*
X153175012Y-106898615D01*
X153356049Y-106878217D01*
X153356052Y-106878216D01*
X153356055Y-106878216D01*
X153528023Y-106818042D01*
X153682289Y-106721110D01*
X153682294Y-106721104D01*
X153684906Y-106719022D01*
X153686920Y-106718199D01*
X153688185Y-106717405D01*
X153688324Y-106717626D01*
X153749592Y-106692612D01*
X153818288Y-106705366D01*
X153849903Y-106728286D01*
X153867727Y-106746110D01*
X154021993Y-106843042D01*
X154180812Y-106898615D01*
X154193961Y-106903216D01*
X154193966Y-106903217D01*
X154375004Y-106923615D01*
X154375008Y-106923615D01*
X154375012Y-106923615D01*
X154556049Y-106903217D01*
X154556052Y-106903216D01*
X154556055Y-106903216D01*
X154728023Y-106843042D01*
X154828928Y-106779638D01*
X154896165Y-106760638D01*
X154960873Y-106779638D01*
X155021993Y-106818042D01*
X155193955Y-106878214D01*
X155193961Y-106878216D01*
X155193966Y-106878217D01*
X155375004Y-106898615D01*
X155375008Y-106898615D01*
X155375012Y-106898615D01*
X155556049Y-106878217D01*
X155556052Y-106878216D01*
X155556055Y-106878216D01*
X155728023Y-106818042D01*
X155882289Y-106721110D01*
X156011119Y-106592280D01*
X156108051Y-106438014D01*
X156168225Y-106266046D01*
X156169943Y-106250798D01*
X156188624Y-106085002D01*
X156188624Y-106084995D01*
X156168226Y-105903957D01*
X156168225Y-105903952D01*
X156129149Y-105792280D01*
X156108051Y-105731984D01*
X156011119Y-105577718D01*
X155882289Y-105448888D01*
X155828928Y-105415359D01*
X155728025Y-105351957D01*
X155728024Y-105351956D01*
X155728023Y-105351956D01*
X155673701Y-105332948D01*
X155556054Y-105291781D01*
X155556049Y-105291780D01*
X155375012Y-105271383D01*
X155375004Y-105271383D01*
X155193966Y-105291780D01*
X155193961Y-105291781D01*
X155021988Y-105351957D01*
X155021987Y-105351958D01*
X154921085Y-105415359D01*
X154853849Y-105434359D01*
X154789143Y-105415359D01*
X154728025Y-105376957D01*
X154728024Y-105376956D01*
X154728023Y-105376956D01*
X154656577Y-105351956D01*
X154556054Y-105316781D01*
X154556049Y-105316780D01*
X154375012Y-105296383D01*
X154375004Y-105296383D01*
X154193966Y-105316780D01*
X154193961Y-105316781D01*
X154021990Y-105376957D01*
X153867716Y-105473894D01*
X153865095Y-105475985D01*
X153863083Y-105476805D01*
X153861831Y-105477593D01*
X153861693Y-105477373D01*
X153800406Y-105502387D01*
X153731712Y-105489623D01*
X153700112Y-105466711D01*
X153682289Y-105448888D01*
X153528025Y-105351957D01*
X153528024Y-105351956D01*
X153528023Y-105351956D01*
X153473701Y-105332948D01*
X153356054Y-105291781D01*
X153356049Y-105291780D01*
X153175012Y-105271383D01*
X153175004Y-105271383D01*
X152993966Y-105291780D01*
X152993961Y-105291781D01*
X152821993Y-105351956D01*
X152813383Y-105357366D01*
X152746145Y-105376362D01*
X152706461Y-105369411D01*
X152656577Y-105351956D01*
X152556054Y-105316781D01*
X152556049Y-105316780D01*
X152375012Y-105296383D01*
X152375004Y-105296383D01*
X152193966Y-105316780D01*
X152193961Y-105316781D01*
X152021991Y-105376956D01*
X151960871Y-105415360D01*
X151893634Y-105434359D01*
X151828929Y-105415359D01*
X151728025Y-105351957D01*
X151728024Y-105351956D01*
X151728023Y-105351956D01*
X151673701Y-105332948D01*
X151556054Y-105291781D01*
X151556049Y-105291780D01*
X151375012Y-105271383D01*
X151375011Y-105271383D01*
X151375009Y-105271383D01*
X151375008Y-105271383D01*
X151348202Y-105274403D01*
X151312664Y-105278407D01*
X151243842Y-105266351D01*
X151192463Y-105219001D01*
X151175562Y-105169069D01*
X151168226Y-105103956D01*
X151168225Y-105103952D01*
X151108051Y-104931984D01*
X151011119Y-104777718D01*
X150882289Y-104648888D01*
X150728023Y-104551956D01*
X150673701Y-104532948D01*
X150556054Y-104491781D01*
X150556049Y-104491780D01*
X150375012Y-104471383D01*
X150375004Y-104471383D01*
X150193966Y-104491780D01*
X150193961Y-104491781D01*
X150021990Y-104551957D01*
X149867726Y-104648888D01*
X149738897Y-104777717D01*
X149641966Y-104931981D01*
X149581790Y-105103952D01*
X149581789Y-105103957D01*
X149561392Y-105284995D01*
X129675508Y-105284995D01*
X129675508Y-104009499D01*
X129695193Y-103942460D01*
X129747997Y-103896705D01*
X129799508Y-103885499D01*
X181350508Y-103885499D01*
X181417547Y-103905184D01*
G37*
%TD.AperFunction*%
%TD*%
M02*
