%TF.GenerationSoftware,KiCad,Pcbnew,8.0.9-8.0.9-0~ubuntu22.04.1*%
%TF.CreationDate,2025-08-19T21:28:46+02:00*%
%TF.ProjectId,KG_Disp_Adapter,4b475f44-6973-4705-9f41-646170746572,rev?*%
%TF.SameCoordinates,Original*%
%TF.FileFunction,Copper,L4,Bot*%
%TF.FilePolarity,Positive*%
%FSLAX46Y46*%
G04 Gerber Fmt 4.6, Leading zero omitted, Abs format (unit mm)*
G04 Created by KiCad (PCBNEW 8.0.9-8.0.9-0~ubuntu22.04.1) date 2025-08-19 21:28:46*
%MOMM*%
%LPD*%
G01*
G04 APERTURE LIST*
G04 Aperture macros list*
%AMRoundRect*
0 Rectangle with rounded corners*
0 $1 Rounding radius*
0 $2 $3 $4 $5 $6 $7 $8 $9 X,Y pos of 4 corners*
0 Add a 4 corners polygon primitive as box body*
4,1,4,$2,$3,$4,$5,$6,$7,$8,$9,$2,$3,0*
0 Add four circle primitives for the rounded corners*
1,1,$1+$1,$2,$3*
1,1,$1+$1,$4,$5*
1,1,$1+$1,$6,$7*
1,1,$1+$1,$8,$9*
0 Add four rect primitives between the rounded corners*
20,1,$1+$1,$2,$3,$4,$5,0*
20,1,$1+$1,$4,$5,$6,$7,0*
20,1,$1+$1,$6,$7,$8,$9,0*
20,1,$1+$1,$8,$9,$2,$3,0*%
G04 Aperture macros list end*
%TA.AperFunction,SMDPad,CuDef*%
%ADD10RoundRect,0.250000X-0.475000X0.250000X-0.475000X-0.250000X0.475000X-0.250000X0.475000X0.250000X0*%
%TD*%
%TA.AperFunction,SMDPad,CuDef*%
%ADD11RoundRect,0.250000X-0.250000X-0.475000X0.250000X-0.475000X0.250000X0.475000X-0.250000X0.475000X0*%
%TD*%
%TA.AperFunction,SMDPad,CuDef*%
%ADD12RoundRect,0.250000X0.475000X-0.250000X0.475000X0.250000X-0.475000X0.250000X-0.475000X-0.250000X0*%
%TD*%
%TA.AperFunction,SMDPad,CuDef*%
%ADD13RoundRect,0.250000X-0.450000X0.262500X-0.450000X-0.262500X0.450000X-0.262500X0.450000X0.262500X0*%
%TD*%
%TA.AperFunction,SMDPad,CuDef*%
%ADD14RoundRect,0.163044X0.586956X1.536956X-0.586956X1.536956X-0.586956X-1.536956X0.586956X-1.536956X0*%
%TD*%
%TA.AperFunction,SMDPad,CuDef*%
%ADD15RoundRect,0.208333X0.291667X1.541667X-0.291667X1.541667X-0.291667X-1.541667X0.291667X-1.541667X0*%
%TD*%
%TA.AperFunction,ComponentPad*%
%ADD16R,0.850000X0.850000*%
%TD*%
%TA.AperFunction,ComponentPad*%
%ADD17O,0.850000X0.850000*%
%TD*%
%TA.AperFunction,ViaPad*%
%ADD18C,0.600000*%
%TD*%
%TA.AperFunction,Conductor*%
%ADD19C,0.200000*%
%TD*%
%TA.AperFunction,Conductor*%
%ADD20C,0.250000*%
%TD*%
G04 APERTURE END LIST*
D10*
%TO.P,C19,1*%
%TO.N,+3V3*%
X152775008Y-107734999D03*
%TO.P,C19,2*%
%TO.N,GND*%
X152775008Y-109634999D03*
%TD*%
D11*
%TO.P,C13,1*%
%TO.N,Net-(J4-Pin_20)*%
X152425008Y-104884999D03*
%TO.P,C13,2*%
%TO.N,Net-(J4-Pin_19)*%
X154325008Y-104884999D03*
%TD*%
D10*
%TO.P,C14,1*%
%TO.N,Net-(J4-Pin_16)*%
X156975008Y-112134999D03*
%TO.P,C14,2*%
%TO.N,Net-(J4-Pin_17)*%
X156975008Y-114034999D03*
%TD*%
D12*
%TO.P,C8,1*%
%TO.N,+3V3*%
X141135008Y-114034999D03*
%TO.P,C8,2*%
%TO.N,Net-(J4-Pin_27)*%
X141135008Y-112134999D03*
%TD*%
D13*
%TO.P,R1,1*%
%TO.N,Net-(J1-Pin_1)*%
X179175008Y-119972499D03*
%TO.P,R1,2*%
%TO.N,Net-(J2-Pin_1)*%
X179175008Y-121797499D03*
%TD*%
D14*
%TO.P,J2,MP*%
%TO.N,N/C*%
X172225008Y-136159999D03*
X178925008Y-136159999D03*
D15*
%TO.P,J2,2,Pin_2*%
%TO.N,Net-(J2-Pin_2)*%
X174575008Y-130409999D03*
%TO.P,J2,1,Pin_1*%
%TO.N,Net-(J2-Pin_1)*%
X176575008Y-130409999D03*
%TD*%
D10*
%TO.P,C10,1*%
%TO.N,Net-(J4-Pin_25)*%
X145175008Y-112134999D03*
%TO.P,C10,2*%
%TO.N,+3V3*%
X145175008Y-114034999D03*
%TD*%
%TO.P,C9,1*%
%TO.N,Net-(J4-Pin_26)*%
X143175008Y-112134999D03*
%TO.P,C9,2*%
%TO.N,+3V3*%
X143175008Y-114034999D03*
%TD*%
%TO.P,C12,1*%
%TO.N,Net-(J4-Pin_23)*%
X149175008Y-112134999D03*
%TO.P,C12,2*%
%TO.N,+3V3*%
X149175008Y-114034999D03*
%TD*%
D13*
%TO.P,R2,1*%
%TO.N,Net-(J1-Pin_2)*%
X177175008Y-119972499D03*
%TO.P,R2,2*%
%TO.N,Net-(J2-Pin_2)*%
X177175008Y-121797499D03*
%TD*%
D10*
%TO.P,C11,1*%
%TO.N,Net-(J4-Pin_24)*%
X147175008Y-112134999D03*
%TO.P,C11,2*%
%TO.N,+3V3*%
X147175008Y-114034999D03*
%TD*%
D12*
%TO.P,C7,1*%
%TO.N,Net-(J4-Pin_15)*%
X157775008Y-108434999D03*
%TO.P,C7,2*%
%TO.N,GND*%
X157775008Y-106534999D03*
%TD*%
D10*
%TO.P,C15,1*%
%TO.N,Net-(J4-Pin_18)*%
X154175008Y-112134999D03*
%TO.P,C15,2*%
%TO.N,Net-(J4-Pin_17)*%
X154175008Y-114034999D03*
%TD*%
D16*
%TO.P,J1,1,Pin_1*%
%TO.N,Net-(J1-Pin_1)*%
X178950008Y-106784999D03*
D17*
%TO.P,J1,2,Pin_2*%
%TO.N,Net-(J1-Pin_2)*%
X178950008Y-107784999D03*
%TD*%
D18*
%TO.N,+3V3*%
X167860008Y-127799999D03*
X134650008Y-133159999D03*
X152375008Y-106109999D03*
X148775008Y-115284999D03*
X148375008Y-108884999D03*
X149575008Y-115284999D03*
X136887508Y-114884999D03*
X166575008Y-114284999D03*
X134575008Y-132284999D03*
%TO.N,GND*%
X140375008Y-133834999D03*
X148575008Y-105884999D03*
X161575008Y-129684999D03*
X177975008Y-123884999D03*
X163775008Y-131684999D03*
X170975008Y-112984999D03*
X141975008Y-129834999D03*
X154575008Y-126884999D03*
X156325008Y-106084999D03*
X167975008Y-111084999D03*
X130175008Y-123284999D03*
X133175008Y-137834999D03*
X145775008Y-108884999D03*
X145087508Y-126684999D03*
X136087508Y-129484999D03*
X134775008Y-131084999D03*
X145687508Y-115684999D03*
X151575008Y-129484999D03*
X136887508Y-112884999D03*
X147575008Y-126884999D03*
X176750008Y-127859999D03*
X152775008Y-110684999D03*
X175575008Y-123884999D03*
X146175008Y-126684999D03*
X164175008Y-108884999D03*
X175575008Y-133884999D03*
X179375008Y-127884999D03*
X177975008Y-113984999D03*
X147175008Y-131684999D03*
X169175008Y-118284999D03*
X141975008Y-137834999D03*
%TO.N,+5V*%
X160175008Y-129684999D03*
X156175008Y-129884999D03*
X136087508Y-127484999D03*
X155175008Y-129884999D03*
X148175008Y-129684999D03*
X177975008Y-109584999D03*
X163075008Y-129784999D03*
X143175008Y-133234999D03*
X136375008Y-124884999D03*
X143725008Y-132634999D03*
%TO.N,Net-(J4-Pin_15)*%
X155975008Y-108884999D03*
%TO.N,Net-(J4-Pin_27)*%
X149575008Y-108884999D03*
%TO.N,Net-(J4-Pin_26)*%
X150375008Y-105284999D03*
%TO.N,Net-(J4-Pin_25)*%
X150775008Y-109484999D03*
%TO.N,Net-(J4-Pin_24)*%
X151375008Y-106084999D03*
%TO.N,Net-(J4-Pin_23)*%
X151800008Y-108684999D03*
%TO.N,Net-(J4-Pin_20)*%
X153175008Y-106084999D03*
%TO.N,Net-(J4-Pin_19)*%
X153700008Y-108684999D03*
%TO.N,Net-(J4-Pin_17)*%
X154775008Y-109484999D03*
%TO.N,Net-(J4-Pin_16)*%
X155375008Y-106084999D03*
%TO.N,Net-(J4-Pin_18)*%
X154375008Y-106109999D03*
%TO.N,/PCB_CS*%
X170975008Y-110584999D03*
X169575008Y-128084999D03*
%TO.N,/PCB_RD*%
X172975008Y-127884999D03*
X170975008Y-111784999D03*
%TO.N,Net-(U2-DIR)*%
X142487508Y-126884999D03*
X176575008Y-112784999D03*
%TD*%
D19*
%TO.N,+3V3*%
X149025008Y-114034999D02*
X148775008Y-114284999D01*
X148775008Y-114284999D02*
X148775008Y-115284999D01*
X149175008Y-114034999D02*
X149025008Y-114034999D01*
X152375008Y-106284999D02*
X152775008Y-106684999D01*
X149175008Y-114034999D02*
X147175008Y-114034999D01*
X149175008Y-114034999D02*
X149325008Y-114034999D01*
X149325008Y-114034999D02*
X149575008Y-114284999D01*
X141135008Y-114034999D02*
X143175008Y-114034999D01*
X152375008Y-106109999D02*
X152375008Y-106284999D01*
X145175008Y-114034999D02*
X147175008Y-114034999D01*
X143175008Y-114034999D02*
X145175008Y-114034999D01*
X149575008Y-114284999D02*
X149575008Y-115284999D01*
X152775008Y-106684999D02*
X152775008Y-107734999D01*
%TO.N,GND*%
X156775008Y-106534999D02*
X156325008Y-106084999D01*
X152775008Y-109634999D02*
X152775008Y-110684999D01*
X157775008Y-106534999D02*
X156775008Y-106534999D01*
D20*
%TO.N,+5V*%
X136975008Y-124284999D02*
X153175008Y-124284999D01*
X167975008Y-109484999D02*
X177875008Y-109484999D01*
X136375008Y-124884999D02*
X136975008Y-124284999D01*
X177875008Y-109484999D02*
X177975008Y-109584999D01*
X153175008Y-124284999D02*
X167975008Y-109484999D01*
D19*
%TO.N,Net-(J4-Pin_15)*%
X157725008Y-108484999D02*
X157775008Y-108434999D01*
X156375008Y-108484999D02*
X157725008Y-108484999D01*
X155975008Y-108884999D02*
X156375008Y-108484999D01*
%TO.N,Net-(J4-Pin_27)*%
X149109323Y-108884999D02*
X148975008Y-109019314D01*
X142575008Y-109684999D02*
X141135008Y-111124999D01*
X148975008Y-109133528D02*
X148423537Y-109684999D01*
X148975008Y-109019314D02*
X148975008Y-109133528D01*
X149575008Y-108884999D02*
X149109323Y-108884999D01*
X141135008Y-111124999D02*
X141135008Y-112134999D01*
X148423537Y-109684999D02*
X142575008Y-109684999D01*
%TO.N,Net-(J4-Pin_26)*%
X150175008Y-109284999D02*
X149975008Y-109484999D01*
X149209323Y-109484999D02*
X148609323Y-110084999D01*
X148609323Y-110084999D02*
X144175008Y-110084999D01*
X144175008Y-110084999D02*
X143175008Y-111084999D01*
X150375008Y-105284999D02*
X150175008Y-105484999D01*
X149975008Y-109484999D02*
X149209323Y-109484999D01*
X150175008Y-105484999D02*
X150175008Y-109284999D01*
X143175008Y-111084999D02*
X143175008Y-112134999D01*
%TO.N,Net-(J4-Pin_25)*%
X150775008Y-109484999D02*
X150375008Y-109884999D01*
X148775008Y-110484999D02*
X145975008Y-110484999D01*
X149375008Y-109884999D02*
X148775008Y-110484999D01*
X150375008Y-109884999D02*
X149375008Y-109884999D01*
X145975008Y-110484999D02*
X145175008Y-111284999D01*
X145175008Y-111284999D02*
X145175008Y-112134999D01*
%TO.N,Net-(J4-Pin_24)*%
X151225008Y-106234999D02*
X151225008Y-109157181D01*
X148940694Y-110884999D02*
X147575008Y-110884999D01*
X151325008Y-109934999D02*
X150975008Y-110284999D01*
X150975008Y-110284999D02*
X149540694Y-110284999D01*
X149540694Y-110284999D02*
X148940694Y-110884999D01*
X151375008Y-106084999D02*
X151225008Y-106234999D01*
X151225008Y-109157181D02*
X151325008Y-109257181D01*
X151325008Y-109257181D02*
X151325008Y-109934999D01*
X147175008Y-111284999D02*
X147175008Y-112134999D01*
X147575008Y-110884999D02*
X147175008Y-111284999D01*
%TO.N,Net-(J4-Pin_23)*%
X151825008Y-108684999D02*
X151775008Y-108734999D01*
X149175008Y-111284999D02*
X149175008Y-112134999D01*
X149775008Y-110684999D02*
X149175008Y-111284999D01*
X151800008Y-108684999D02*
X151775008Y-108709999D01*
X151775008Y-108709999D02*
X151775008Y-110084999D01*
X151175008Y-110684999D02*
X149775008Y-110684999D01*
X151775008Y-110084999D02*
X151175008Y-110684999D01*
%TO.N,Net-(J4-Pin_20)*%
X153175008Y-105634999D02*
X152425008Y-104884999D01*
X153175008Y-106084999D02*
X153175008Y-105634999D01*
%TO.N,Net-(J4-Pin_19)*%
X153775008Y-108609999D02*
X153775008Y-105434999D01*
X153775008Y-105434999D02*
X154325008Y-104884999D01*
X153700008Y-108684999D02*
X153775008Y-108609999D01*
%TO.N,Net-(J4-Pin_17)*%
X154775008Y-110484999D02*
X155575008Y-111284999D01*
X154775008Y-109484999D02*
X154775008Y-110484999D01*
X155575008Y-114034999D02*
X154175008Y-114034999D01*
X156975008Y-114034999D02*
X155575008Y-114034999D01*
X155575008Y-111284999D02*
X155575008Y-114034999D01*
%TO.N,Net-(J4-Pin_16)*%
X156975008Y-110733528D02*
X156975008Y-112134999D01*
X155375008Y-109133528D02*
X156975008Y-110733528D01*
X157175008Y-111934999D02*
X156975008Y-112134999D01*
X155375008Y-106084999D02*
X155375008Y-109133528D01*
%TO.N,Net-(J4-Pin_18)*%
X154375008Y-109036470D02*
X154175008Y-109236470D01*
X154375008Y-106109999D02*
X154375008Y-109036470D01*
X154175008Y-109236470D02*
X154175008Y-112134999D01*
X154325008Y-112134999D02*
X154175008Y-112134999D01*
D20*
%TO.N,Net-(J1-Pin_2)*%
X177175008Y-119084999D02*
X180375008Y-115884999D01*
X180375008Y-108484999D02*
X179675008Y-107784999D01*
X180375008Y-115884999D02*
X180375008Y-108484999D01*
X179675008Y-107784999D02*
X178950008Y-107784999D01*
X177175008Y-119972499D02*
X177175008Y-119084999D01*
%TO.N,Net-(J1-Pin_1)*%
X179175008Y-118484999D02*
X180775008Y-116884999D01*
X180775008Y-107484999D02*
X180075008Y-106784999D01*
X180075008Y-106784999D02*
X178950008Y-106784999D01*
X179175008Y-119972499D02*
X179175008Y-118484999D01*
X180775008Y-116884999D02*
X180775008Y-107484999D01*
%TO.N,Net-(J2-Pin_1)*%
X178175008Y-127284999D02*
X178175008Y-129884999D01*
X177650008Y-130409999D02*
X176575008Y-130409999D01*
X178175008Y-129884999D02*
X177650008Y-130409999D01*
X179175008Y-121797499D02*
X179175008Y-126284999D01*
X179175008Y-126284999D02*
X178175008Y-127284999D01*
%TO.N,Net-(J2-Pin_2)*%
X177175008Y-121797499D02*
X177175008Y-125284999D01*
X177175008Y-125284999D02*
X174575008Y-127884999D01*
X174575008Y-127884999D02*
X174575008Y-130409999D01*
%TO.N,/PCB_CS*%
X170175008Y-127484999D02*
X170175008Y-111384999D01*
X170175008Y-111384999D02*
X170975008Y-110584999D01*
X169575008Y-128084999D02*
X170175008Y-127484999D01*
%TO.N,/PCB_RD*%
X171575008Y-112384999D02*
X170975008Y-111784999D01*
X172975008Y-127884999D02*
X171575008Y-126484999D01*
X171575008Y-126484999D02*
X171575008Y-112384999D01*
%TO.N,Net-(U2-DIR)*%
X176575008Y-112784999D02*
X176575008Y-112684999D01*
X173775008Y-109884999D02*
X168175008Y-109884999D01*
X153375008Y-124684999D02*
X144687508Y-124684999D01*
X176575008Y-112684999D02*
X173775008Y-109884999D01*
X168175008Y-109884999D02*
X153375008Y-124684999D01*
X144687508Y-124684999D02*
X142487508Y-126884999D01*
%TD*%
%TA.AperFunction,Conductor*%
%TO.N,GND*%
G36*
X181452834Y-133506673D02*
G01*
X181474508Y-133558999D01*
X181474508Y-138610499D01*
X181452834Y-138662825D01*
X181400508Y-138684499D01*
X169249008Y-138684499D01*
X169196682Y-138662825D01*
X169175008Y-138610499D01*
X169175008Y-134588533D01*
X171274508Y-134588533D01*
X171274508Y-137731464D01*
X171284803Y-137802123D01*
X171338090Y-137911122D01*
X171338091Y-137911123D01*
X171423884Y-137996916D01*
X171532885Y-138050204D01*
X171603548Y-138060499D01*
X171603554Y-138060499D01*
X172846462Y-138060499D01*
X172846468Y-138060499D01*
X172917131Y-138050204D01*
X173026132Y-137996916D01*
X173111925Y-137911123D01*
X173165213Y-137802122D01*
X173175508Y-137731459D01*
X173175508Y-134588539D01*
X173175507Y-134588533D01*
X177974508Y-134588533D01*
X177974508Y-137731464D01*
X177984803Y-137802123D01*
X178038090Y-137911122D01*
X178038091Y-137911123D01*
X178123884Y-137996916D01*
X178232885Y-138050204D01*
X178303548Y-138060499D01*
X178303554Y-138060499D01*
X179546462Y-138060499D01*
X179546468Y-138060499D01*
X179617131Y-138050204D01*
X179726132Y-137996916D01*
X179811925Y-137911123D01*
X179865213Y-137802122D01*
X179875508Y-137731459D01*
X179875508Y-134588539D01*
X179865213Y-134517876D01*
X179811925Y-134408875D01*
X179726132Y-134323082D01*
X179726131Y-134323081D01*
X179726132Y-134323081D01*
X179617132Y-134269794D01*
X179546473Y-134259499D01*
X179546468Y-134259499D01*
X178303548Y-134259499D01*
X178303542Y-134259499D01*
X178232883Y-134269794D01*
X178123884Y-134323081D01*
X178038090Y-134408875D01*
X177984803Y-134517874D01*
X177974508Y-134588533D01*
X173175507Y-134588533D01*
X173165213Y-134517876D01*
X173111925Y-134408875D01*
X173026132Y-134323082D01*
X173026131Y-134323081D01*
X173026132Y-134323081D01*
X172917132Y-134269794D01*
X172846473Y-134259499D01*
X172846468Y-134259499D01*
X171603548Y-134259499D01*
X171603542Y-134259499D01*
X171532883Y-134269794D01*
X171423884Y-134323081D01*
X171338090Y-134408875D01*
X171284803Y-134517874D01*
X171274508Y-134588533D01*
X169175008Y-134588533D01*
X169175008Y-133558999D01*
X169196682Y-133506673D01*
X169249008Y-133484999D01*
X181400508Y-133484999D01*
X181452834Y-133506673D01*
G37*
%TD.AperFunction*%
%TD*%
%TA.AperFunction,Conductor*%
%TO.N,+3V3*%
G36*
X148875098Y-114688426D02*
G01*
X148877815Y-114692686D01*
X149048338Y-115159693D01*
X149047957Y-115168640D01*
X149041859Y-115174502D01*
X148779519Y-115284114D01*
X148770564Y-115284141D01*
X148770497Y-115284114D01*
X148508156Y-115174502D01*
X148501844Y-115168150D01*
X148501677Y-115159696D01*
X148672201Y-114692685D01*
X148678257Y-114686090D01*
X148683191Y-114684999D01*
X148866825Y-114684999D01*
X148875098Y-114688426D01*
G37*
%TD.AperFunction*%
%TD*%
%TA.AperFunction,Conductor*%
%TO.N,+3V3*%
G36*
X152648062Y-106000585D02*
G01*
X152654374Y-106006937D01*
X152655012Y-106009028D01*
X152760844Y-106524509D01*
X152759151Y-106533302D01*
X152757656Y-106535135D01*
X152627932Y-106664859D01*
X152619659Y-106668286D01*
X152612553Y-106665881D01*
X152173459Y-106330221D01*
X152168968Y-106322474D01*
X152171270Y-106313820D01*
X152172264Y-106312680D01*
X152372637Y-106110966D01*
X152376488Y-106108393D01*
X152639108Y-106000558D01*
X152648062Y-106000585D01*
G37*
%TD.AperFunction*%
%TD*%
%TA.AperFunction,Conductor*%
%TO.N,+3V3*%
G36*
X149675098Y-114688426D02*
G01*
X149677815Y-114692686D01*
X149848338Y-115159693D01*
X149847957Y-115168640D01*
X149841859Y-115174502D01*
X149579519Y-115284114D01*
X149570564Y-115284141D01*
X149570497Y-115284114D01*
X149308156Y-115174502D01*
X149301844Y-115168150D01*
X149301677Y-115159696D01*
X149472201Y-114692685D01*
X149478257Y-114686090D01*
X149483191Y-114684999D01*
X149666825Y-114684999D01*
X149675098Y-114688426D01*
G37*
%TD.AperFunction*%
%TD*%
%TA.AperFunction,Conductor*%
%TO.N,GND*%
G36*
X156600787Y-105974466D02*
G01*
X156606885Y-105980328D01*
X156816531Y-106431131D01*
X156816912Y-106440078D01*
X156814195Y-106444338D01*
X156684347Y-106574186D01*
X156676074Y-106577613D01*
X156671140Y-106576522D01*
X156377744Y-106440078D01*
X156220336Y-106366875D01*
X156214281Y-106360280D01*
X156214447Y-106351824D01*
X156322444Y-106088813D01*
X156328754Y-106082463D01*
X156591833Y-105974439D01*
X156600787Y-105974466D01*
G37*
%TD.AperFunction*%
%TD*%
%TA.AperFunction,Conductor*%
%TO.N,GND*%
G36*
X152875098Y-110088426D02*
G01*
X152877815Y-110092686D01*
X153048338Y-110559693D01*
X153047957Y-110568640D01*
X153041859Y-110574502D01*
X152779519Y-110684114D01*
X152770564Y-110684141D01*
X152770497Y-110684114D01*
X152508156Y-110574502D01*
X152501844Y-110568150D01*
X152501677Y-110559696D01*
X152672201Y-110092685D01*
X152678257Y-110086090D01*
X152683191Y-110084999D01*
X152866825Y-110084999D01*
X152875098Y-110088426D01*
G37*
%TD.AperFunction*%
%TD*%
%TA.AperFunction,Conductor*%
%TO.N,+5V*%
G36*
X177970496Y-109289036D02*
G01*
X177974955Y-109296802D01*
X177975052Y-109298263D01*
X177976000Y-109582631D01*
X177975096Y-109587181D01*
X177865193Y-109850219D01*
X177858841Y-109856531D01*
X177849886Y-109856504D01*
X177848822Y-109855995D01*
X177401024Y-109613318D01*
X177395383Y-109606363D01*
X177394899Y-109603031D01*
X177394899Y-109370283D01*
X177398326Y-109362010D01*
X177405098Y-109358680D01*
X177961854Y-109286699D01*
X177970496Y-109289036D01*
G37*
%TD.AperFunction*%
%TD*%
%TA.AperFunction,Conductor*%
%TO.N,+5V*%
G36*
X136716958Y-124378422D02*
G01*
X136881584Y-124543048D01*
X136885011Y-124551321D01*
X136883681Y-124556739D01*
X136657114Y-124990345D01*
X136650245Y-124996091D01*
X136642300Y-124995750D01*
X136378823Y-124887562D01*
X136372471Y-124881250D01*
X136372444Y-124881183D01*
X136264256Y-124617706D01*
X136264283Y-124608751D01*
X136269659Y-124602893D01*
X136703270Y-124376324D01*
X136712186Y-124375531D01*
X136716958Y-124378422D01*
G37*
%TD.AperFunction*%
%TD*%
%TA.AperFunction,Conductor*%
%TO.N,Net-(J4-Pin_15)*%
G36*
X156402178Y-108391596D02*
G01*
X156408464Y-108397974D01*
X156409323Y-108402373D01*
X156409323Y-108582857D01*
X156408564Y-108587002D01*
X156256440Y-108988537D01*
X156250305Y-108995060D01*
X156241354Y-108995333D01*
X156241035Y-108995207D01*
X156070512Y-108924828D01*
X155978513Y-108886858D01*
X155972175Y-108880536D01*
X155864665Y-108618701D01*
X155864692Y-108609747D01*
X155871042Y-108603436D01*
X156393224Y-108391532D01*
X156402178Y-108391596D01*
G37*
%TD.AperFunction*%
%TD*%
%TA.AperFunction,Conductor*%
%TO.N,Net-(J4-Pin_27)*%
G36*
X149464663Y-108618777D02*
G01*
X149465354Y-108620163D01*
X149573835Y-108879792D01*
X149573862Y-108888747D01*
X149573843Y-108888794D01*
X149464245Y-109152439D01*
X149457905Y-109158763D01*
X149450108Y-109159163D01*
X149087901Y-109051528D01*
X149082961Y-109048586D01*
X148954368Y-108919993D01*
X148950941Y-108911720D01*
X148954368Y-108903447D01*
X148956742Y-108901616D01*
X149448663Y-108614568D01*
X149457534Y-108613359D01*
X149464663Y-108618777D01*
G37*
%TD.AperFunction*%
%TD*%
%TA.AperFunction,Conductor*%
%TO.N,Net-(J4-Pin_26)*%
G36*
X150378406Y-105287413D02*
G01*
X150387610Y-105296660D01*
X150578852Y-105488804D01*
X150582259Y-105497086D01*
X150578813Y-105505351D01*
X150578778Y-105505385D01*
X150278425Y-105801864D01*
X150270206Y-105805237D01*
X150086708Y-105805237D01*
X150078435Y-105801810D01*
X150075008Y-105793537D01*
X150075008Y-105296660D01*
X150078435Y-105288387D01*
X150086668Y-105284960D01*
X150370122Y-105284015D01*
X150378406Y-105287413D01*
G37*
%TD.AperFunction*%
%TD*%
%TA.AperFunction,Conductor*%
%TO.N,Net-(J4-Pin_25)*%
G36*
X150508974Y-109374787D02*
G01*
X150771502Y-109483139D01*
X150777841Y-109489462D01*
X150777860Y-109489509D01*
X150885350Y-109751295D01*
X150885323Y-109760250D01*
X150878971Y-109766562D01*
X150878926Y-109766580D01*
X150356792Y-109978465D01*
X150347838Y-109978401D01*
X150341552Y-109972023D01*
X150340693Y-109967624D01*
X150340693Y-109787140D01*
X150341452Y-109782995D01*
X150347678Y-109766562D01*
X150493576Y-109381458D01*
X150499710Y-109374937D01*
X150508661Y-109374664D01*
X150508974Y-109374787D01*
G37*
%TD.AperFunction*%
%TD*%
%TA.AperFunction,Conductor*%
%TO.N,Net-(J4-Pin_24)*%
G36*
X151378407Y-106087414D02*
G01*
X151378454Y-106087461D01*
X151579917Y-106289874D01*
X151583324Y-106298156D01*
X151580905Y-106305252D01*
X151328520Y-106634070D01*
X151320765Y-106638546D01*
X151319239Y-106638646D01*
X151135699Y-106638646D01*
X151127426Y-106635219D01*
X151124046Y-106627998D01*
X151076155Y-106097706D01*
X151078824Y-106089161D01*
X151086756Y-106085003D01*
X151087758Y-106084956D01*
X151370122Y-106084015D01*
X151378407Y-106087414D01*
G37*
%TD.AperFunction*%
%TD*%
%TA.AperFunction,Conductor*%
%TO.N,Net-(J4-Pin_23)*%
G36*
X152066347Y-108795281D02*
G01*
X152072659Y-108801633D01*
X152072632Y-108810588D01*
X152072619Y-108810617D01*
X151878022Y-109272866D01*
X151871654Y-109279161D01*
X151867239Y-109280026D01*
X151683574Y-109280026D01*
X151675301Y-109276599D01*
X151672421Y-109271860D01*
X151526077Y-108810007D01*
X151526844Y-108801085D01*
X151532716Y-108795678D01*
X151795498Y-108685882D01*
X151804452Y-108685856D01*
X152066347Y-108795281D01*
G37*
%TD.AperFunction*%
%TD*%
%TA.AperFunction,Conductor*%
%TO.N,Net-(J4-Pin_20)*%
G36*
X153145686Y-105468735D02*
G01*
X153147397Y-105470910D01*
X153267095Y-105666999D01*
X153445068Y-105958557D01*
X153446454Y-105967404D01*
X153441178Y-105974639D01*
X153439593Y-105975449D01*
X153180214Y-106083826D01*
X153171259Y-106083853D01*
X153171212Y-106083834D01*
X152907333Y-105974138D01*
X152901009Y-105967798D01*
X152900531Y-105960275D01*
X152997417Y-105602650D01*
X153000434Y-105597441D01*
X153129141Y-105468734D01*
X153137413Y-105465308D01*
X153145686Y-105468735D01*
G37*
%TD.AperFunction*%
%TD*%
%TA.AperFunction,Conductor*%
%TO.N,Net-(J4-Pin_19)*%
G36*
X153873850Y-108103344D02*
G01*
X153877010Y-108109133D01*
X153975103Y-108560670D01*
X153973511Y-108569482D01*
X153968181Y-108573950D01*
X153704519Y-108684114D01*
X153695564Y-108684141D01*
X153695497Y-108684114D01*
X153434733Y-108575161D01*
X153428421Y-108568809D01*
X153428448Y-108559854D01*
X153428923Y-108558855D01*
X153671699Y-108106087D01*
X153678628Y-108100416D01*
X153682010Y-108099917D01*
X153865577Y-108099917D01*
X153873850Y-108103344D01*
G37*
%TD.AperFunction*%
%TD*%
%TA.AperFunction,Conductor*%
%TO.N,Net-(J4-Pin_17)*%
G36*
X155041859Y-109595495D02*
G01*
X155048171Y-109601847D01*
X155048338Y-109610304D01*
X154877815Y-110077312D01*
X154871759Y-110083908D01*
X154866825Y-110084999D01*
X154683191Y-110084999D01*
X154674918Y-110081572D01*
X154672201Y-110077312D01*
X154501677Y-109610301D01*
X154502058Y-109601357D01*
X154508155Y-109595495D01*
X154770498Y-109485882D01*
X154779452Y-109485856D01*
X155041859Y-109595495D01*
G37*
%TD.AperFunction*%
%TD*%
%TA.AperFunction,Conductor*%
%TO.N,Net-(J4-Pin_16)*%
G36*
X155641859Y-106195495D02*
G01*
X155648171Y-106201847D01*
X155648338Y-106210304D01*
X155477815Y-106677312D01*
X155471759Y-106683908D01*
X155466825Y-106684999D01*
X155283191Y-106684999D01*
X155274918Y-106681572D01*
X155272201Y-106677312D01*
X155101677Y-106210301D01*
X155102058Y-106201357D01*
X155108155Y-106195495D01*
X155370498Y-106085882D01*
X155379452Y-106085856D01*
X155641859Y-106195495D01*
G37*
%TD.AperFunction*%
%TD*%
%TA.AperFunction,Conductor*%
%TO.N,Net-(J4-Pin_18)*%
G36*
X154641859Y-106220495D02*
G01*
X154648171Y-106226847D01*
X154648338Y-106235304D01*
X154477815Y-106702312D01*
X154471759Y-106708908D01*
X154466825Y-106709999D01*
X154283191Y-106709999D01*
X154274918Y-106706572D01*
X154272201Y-106702312D01*
X154101677Y-106235301D01*
X154102058Y-106226357D01*
X154108155Y-106220495D01*
X154370498Y-106110882D01*
X154379452Y-106110856D01*
X154641859Y-106220495D01*
G37*
%TD.AperFunction*%
%TD*%
%TA.AperFunction,Conductor*%
%TO.N,/PCB_CS*%
G36*
X170707715Y-110474247D02*
G01*
X170971192Y-110582435D01*
X170977544Y-110588747D01*
X170977571Y-110588814D01*
X171085759Y-110852291D01*
X171085732Y-110861246D01*
X171080354Y-110867105D01*
X170646748Y-111093672D01*
X170637829Y-111094466D01*
X170633057Y-111091575D01*
X170468431Y-110926949D01*
X170465004Y-110918676D01*
X170466332Y-110913263D01*
X170692902Y-110479650D01*
X170699770Y-110473906D01*
X170707715Y-110474247D01*
G37*
%TD.AperFunction*%
%TD*%
%TA.AperFunction,Conductor*%
%TO.N,/PCB_CS*%
G36*
X169916958Y-127578422D02*
G01*
X170081584Y-127743048D01*
X170085011Y-127751321D01*
X170083681Y-127756739D01*
X169857114Y-128190345D01*
X169850245Y-128196091D01*
X169842300Y-128195750D01*
X169578823Y-128087562D01*
X169572471Y-128081250D01*
X169572444Y-128081183D01*
X169464256Y-127817706D01*
X169464283Y-127808751D01*
X169469659Y-127802893D01*
X169903270Y-127576324D01*
X169912186Y-127575531D01*
X169916958Y-127578422D01*
G37*
%TD.AperFunction*%
%TD*%
%TA.AperFunction,Conductor*%
%TO.N,/PCB_RD*%
G36*
X171251255Y-111674274D02*
G01*
X171257113Y-111679651D01*
X171456982Y-112062163D01*
X171483681Y-112113258D01*
X171484475Y-112122177D01*
X171481584Y-112126949D01*
X171316958Y-112291575D01*
X171308685Y-112295002D01*
X171303268Y-112293672D01*
X170869660Y-112067104D01*
X170863915Y-112060236D01*
X170864255Y-112052292D01*
X170972444Y-111788813D01*
X170978754Y-111782463D01*
X171242301Y-111674247D01*
X171251255Y-111674274D01*
G37*
%TD.AperFunction*%
%TD*%
%TA.AperFunction,Conductor*%
%TO.N,/PCB_RD*%
G36*
X172646744Y-127376324D02*
G01*
X173080354Y-127602892D01*
X173086100Y-127609761D01*
X173085759Y-127617706D01*
X172977571Y-127881183D01*
X172971259Y-127887535D01*
X172971192Y-127887562D01*
X172707715Y-127995750D01*
X172698760Y-127995723D01*
X172692901Y-127990345D01*
X172466333Y-127556736D01*
X172465540Y-127547820D01*
X172468429Y-127543050D01*
X172633058Y-127378421D01*
X172641330Y-127374995D01*
X172646744Y-127376324D01*
G37*
%TD.AperFunction*%
%TD*%
%TA.AperFunction,Conductor*%
%TO.N,Net-(U2-DIR)*%
G36*
X176307116Y-112237901D02*
G01*
X176775724Y-112564901D01*
X176780548Y-112572446D01*
X176778624Y-112581191D01*
X176777330Y-112582742D01*
X176577381Y-112784028D01*
X176573524Y-112786605D01*
X176309177Y-112895150D01*
X176300222Y-112895123D01*
X176293910Y-112888771D01*
X176293717Y-112888268D01*
X176257029Y-112785706D01*
X176124797Y-112416044D01*
X176125237Y-112407101D01*
X176127537Y-112403834D01*
X176292149Y-112239222D01*
X176300421Y-112235796D01*
X176307116Y-112237901D01*
G37*
%TD.AperFunction*%
%TD*%
%TA.AperFunction,Conductor*%
%TO.N,Net-(U2-DIR)*%
G36*
X142829458Y-126378422D02*
G01*
X142994084Y-126543048D01*
X142997511Y-126551321D01*
X142996181Y-126556739D01*
X142769614Y-126990345D01*
X142762745Y-126996091D01*
X142754800Y-126995750D01*
X142491323Y-126887562D01*
X142484971Y-126881250D01*
X142484944Y-126881183D01*
X142376756Y-126617706D01*
X142376783Y-126608751D01*
X142382159Y-126602893D01*
X142815770Y-126376324D01*
X142824686Y-126375531D01*
X142829458Y-126378422D01*
G37*
%TD.AperFunction*%
%TD*%
M02*
